<svg width="15" height="16" viewBox="0 0 15 16" fill="none" xmlns="http://www.w3.org/2000/svg">
<path fill-rule="evenodd" clip-rule="evenodd" d="M7.82612 2.3009L13.3986 8.00002L7.82612 13.6991L6.3961 12.3009L9.62363 9.00002H1V7.00002H9.62363L6.3961 3.69914L7.82612 2.3009Z" fill="white"/>
<path d="M8.18362 1.95134L7.83406 1.59384L7.47656 1.9434L6.04655 3.34164L5.68904 3.69119L6.0386 4.0487L8.43545 6.50002H1H0.5V7.00002V9.00002V9.50002H1H8.43545L6.0386 11.9513L5.68904 12.3088L6.04655 12.6584L7.47656 14.0566L7.83406 14.4062L8.18362 14.0487L13.7561 8.34958L14.0979 8.00002L13.7561 7.65046L8.18362 1.95134Z" stroke="black" stroke-opacity="0.24"/>
</svg>
