<svg width="537" height="542" viewBox="0 0 537 542" fill="none" xmlns="http://www.w3.org/2000/svg">
<path d="M167.93 366.964C167.93 399.745 167.021 432.679 171.565 465.246C173.495 479.079 169.928 437.359 169.213 423.41C168.576 410.987 166.647 398.248 166.647 385.85C166.647 379.769 169.11 397.775 169.855 403.81C172.65 426.487 176.91 449.993 176.91 472.872C176.91 475.153 174.504 468.994 173.347 467.027C172.201 465.079 170.117 464.462 167.93 464.462C163.449 464.462 169.352 464.336 170.71 464.676C182.344 467.584 193.62 475.777 204.635 480.498C224.524 489.021 284.722 511.879 263.433 508.008C260.405 507.458 256.647 507.1 253.883 505.799C252.612 505.201 253.822 505.572 254.667 505.442C257.768 504.965 260.003 502.904 261.295 500.097C272.348 476.084 276.787 444.745 274.123 418.706C273.313 410.78 271.515 401.554 267.353 394.617C263.277 387.823 264.146 396.057 264.146 399.819C264.146 428.355 262.042 456.371 264.787 484.916C265.52 492.543 265.428 500.142 265.428 507.794C265.428 513.376 265.428 504.852 265.428 503.518C265.428 472.693 267.17 441.273 263.86 410.581C262.671 399.552 259.443 388.694 257.09 377.868C255.255 369.426 257.405 380.964 257.802 383.284C263.859 418.616 260.394 454.59 266.07 489.905C267.385 498.087 269.277 506.173 269.277 514.494C269.277 522.947 267.811 503.097 267.709 501.665C265.329 468.35 266.302 434.866 263.86 401.601C262.313 380.514 259.701 359.705 264.217 339.382C264.772 336.882 267.075 327.62 268.279 334.179C269.044 338.345 269.657 344.964 272.841 348.148C274.172 349.479 273.094 343.996 271.843 342.589C267.569 337.78 265.919 336.393 259.656 333.609C251.132 329.821 240.741 326.223 231.575 324.629C219.944 322.606 208.003 323.346 196.153 323.346C187.83 323.346 180.523 319.497 172.064 319.497C143.305 319.497 229.543 322.063 258.301 322.063C269.875 322.063 254.539 320.986 250.462 320.495C225.425 317.479 200.143 311.418 174.915 310.517C173.989 310.484 165.339 309.388 170.14 310.517C182.91 313.522 195.519 316.922 208.554 318.785C233.064 322.286 307.075 328.322 282.605 324.558C255.061 320.32 227.404 328.477 199.717 328.477C193.553 328.477 185.043 328.06 180.759 322.704C173.762 313.958 173.493 329.644 172.777 334.179C170.831 346.498 170.488 359.103 169.498 371.525C168.163 388.291 166.941 405.058 171.066 421.557C172.347 426.681 175.774 443.996 179.975 447.357C181.18 448.32 179.467 444.313 179.191 442.795C178.25 437.617 177.07 432.473 176.34 427.258C172.681 401.121 171.313 373.803 163.44 348.433C161.79 343.115 161.516 339.926 161.516 347.293C161.516 364.573 162.197 382.067 163.084 399.32C164.164 420.318 166.045 443.179 174.63 462.609C180.112 475.017 187.654 484.77 195.868 495.251C200.662 501.367 207.477 503.674 213.401 508.649C227.353 520.369 244.068 528.829 260.297 536.944C275.734 544.663 291.086 536.588 303.059 526.61C306.478 523.761 304.996 523.569 302.917 521.906C299.272 518.99 303.203 518.201 307.336 515.206C324.8 502.554 343.983 494.06 363.069 484.204C390.619 469.977 417.923 454.743 444.175 438.234C458.439 429.264 489.931 414.362 489.931 393.405C489.931 391.256 488.661 397.606 487.365 399.32C480.131 408.895 473.722 417.489 464.273 425.405C422.888 460.08 370.183 474.575 321.875 496.533C307.645 503.002 293.961 511.397 279.112 516.347C278.791 516.454 272.387 519.301 275.264 517.487C286.082 510.667 296.751 504.475 308.405 499.028C347.108 480.938 388.025 468.809 428.068 454.199C454.322 444.62 483.28 434.949 506.893 419.633C518.67 411.993 508.021 413.147 501.192 413.147C492.753 413.147 481.375 414.984 478.67 404.167C477.967 401.355 479.668 389.397 479.668 395.971C479.668 406 476.445 412.995 469.904 420.844C458.196 434.894 442.01 446.907 427.355 457.762C423.624 460.526 419.805 463.092 416.38 466.243C416.183 466.425 412.496 470.556 411.961 470.021C409.743 467.803 423.289 449.617 424.504 447.784C432.988 434.999 441.167 422.303 448.594 408.871C453.611 399.798 459.82 389.784 461.423 379.365C465.828 350.728 441.182 327.1 441.182 299.114C441.182 289.846 445.561 292.381 448.879 299.542C461.463 326.697 456.181 357.81 460.71 386.492C462.864 400.135 467.381 412.15 471.258 425.192C472.848 430.54 472.282 436.139 473.895 441.299C476.103 448.365 473.13 439.738 472.541 437.165C468.655 420.21 465.526 403.313 462.349 386.207C457.6 360.634 451.243 335.351 446.598 309.804C445.122 301.684 444.323 297.944 437.333 294.838C425.717 289.675 411.773 294.419 400.7 298.971C375.359 309.389 351.982 321.787 324.155 324.914C303.755 327.206 242.049 325.912 262.578 325.912C272.678 325.912 282.503 323.416 292.369 321.422C313.272 317.197 334.114 313.04 354.802 307.809C371.756 303.522 388.291 297.745 404.976 292.557C414.263 289.67 424.09 288.155 433.199 284.86C439.018 282.755 463.955 280.301 446.028 286.428C413.401 297.579 378.725 303.486 344.681 308.593C325.424 311.482 305.781 313.083 286.311 313.083C284.97 313.083 277.516 312.066 276.974 314.366C276.738 315.371 277.269 316.183 276.333 316.932C273.751 318.997 274.051 325.537 273.126 328.477C272.6 330.146 269.277 338.328 269.277 337.457C269.277 334.417 267.127 326.185 269.277 328.335C271.68 330.738 272.79 342.342 273.696 345.725C276.736 357.087 279.107 367.651 279.469 379.578C280.022 397.836 276.341 415.885 275.763 434.1C275.731 435.089 274.871 454.056 276.333 454.056C278.132 454.056 273.688 438.804 273.054 437.379C269.783 430.019 266.166 422.821 261.865 415.998C255.752 406.302 250.081 402.085 248.751 389.342C246.333 366.175 245.128 338.479 266.996 324.629C278.825 317.137 286.339 330.452 296.075 335.319C310.891 342.727 329.776 333.293 338.98 321.635C341.433 318.527 343.037 313 346.249 310.802C348.077 309.552 351.678 306.136 348.815 309.519C343.66 315.612 331.314 319.065 324.155 321.778C309.279 327.417 293.479 332.76 277.829 335.89C276.203 336.215 271.479 336.743 275.834 335.533C283.807 333.318 291.733 331.213 299.567 328.335C314.712 322.771 329.679 316.772 344.895 311.372C349.618 309.697 342.445 311.29 342.116 311.372C333.572 313.508 325.144 316.078 316.601 318.214C296.336 323.281 275.439 324.578 254.738 326.909C254.47 326.94 230.672 329.909 233.642 326.197C239.787 318.515 254.709 320.666 261.01 314.366C264.854 310.522 250.591 317.486 245.33 318.856C236.176 321.238 225.901 323.89 216.608 320.638C201.848 315.472 189.007 305.062 173.846 300.397C169.72 299.127 165.918 296.867 162.086 294.838C159.043 293.227 159.264 292.557 162.799 292.557C175.697 292.557 188.509 294.728 201.142 297.118C215.25 299.787 229.933 302.701 243.548 307.381C251.113 309.981 258.711 313.044 266.64 314.366C275.138 315.782 266.744 315.895 263.148 315.506C247.627 313.828 232.181 311.367 216.608 309.876C203.916 308.661 191.38 307.399 178.763 305.671C174.96 305.15 167.625 304.979 164.367 302.535C163.418 301.824 161.631 298.817 161.516 301.822C161.131 311.817 163.561 322.921 165.65 332.611C168.511 345.887 170.353 359.548 170.353 373.164C170.353 389.05 164.413 403.743 162.229 419.347C160.567 431.218 161.516 443.616 161.516 455.624C161.516 456.957 163.229 468.162 164.082 466.243C165.202 463.722 166.718 458.047 169.926 458.047C174.983 458.047 180.449 463.011 183.824 466.386C189.424 471.987 195.095 477.515 200.715 483.135C219.629 502.048 244.931 518.209 272.555 519.625C275.782 519.791 268.122 519.625 267.281 519.625C259.973 519.625 253.09 516.708 245.9 515.491C228.121 512.483 216.488 508.108 204.991 493.611C184.481 467.75 179.476 438.079 179.476 406.091C179.476 388.692 180.759 371.292 180.759 353.85C180.759 341.849 173.863 333.276 169.213 322.348C164.036 310.183 162.799 302.775 162.799 289.492C162.799 287.107 167.241 293.69 168.572 295.123C171.841 298.644 176.094 299.279 180.046 301.537C181.507 302.372 180.31 305.638 179.191 306.383C176.051 308.477 168.952 302.559 166.932 300.539C162.634 296.241 167.399 291.545 165.079 288.993C159.789 283.174 153.236 282.465 152.607 291.274C151.456 307.383 157.475 316.682 173.133 323.275C183.566 327.668 209.809 333.341 212.546 316.646C215.04 301.432 202.111 290.27 188.171 287.14C177.603 284.768 165.788 280.588 156.669 289.706C151.7 294.676 149.234 307.994 151.538 314.651C156.996 330.42 186.554 328.042 191.093 312.156C193.849 302.509 199.504 287.966 187.743 281.581C182.027 278.478 168.661 278 163.084 281.296C154.936 286.111 150.548 297.962 149.329 306.74C147.674 318.656 154.952 324.486 166.434 324.486C179.004 324.486 205.133 318.743 205.133 302.25C205.133 286.995 192.245 277.699 177.48 277.163C162.08 276.603 144.959 286.583 134.647 297.688C120.71 312.697 139.594 322.885 153.89 321.992C164.961 321.3 178.602 313.819 185.463 305.243C189.07 300.734 186.273 293.091 180.759 291.559C171.132 288.885 166.188 309.955 174.06 310.517C176.819 310.714 179.338 311.8 182.042 311.8C186.304 311.8 178.897 302.799 178.193 301.965C175.05 298.239 171.725 296.566 167.075 295.764C165.171 295.436 155.697 296.613 156.456 293.198C157.377 289.054 165.391 286.771 168.5 285.216C177.433 280.75 203.024 265.603 195.441 272.102C191.479 275.498 186.785 280.475 183.966 284.86C181.285 289.03 178.161 294.915 176.839 299.542C176.515 300.675 170.022 305.964 169.783 303.818C169.66 302.707 174.853 284.045 168.928 287.996C162.219 292.468 157.134 298.724 150.113 302.82C147.672 304.243 143.649 306.002 147.476 301.537C151.166 297.232 155.871 296.043 160.661 293.27C162.521 292.193 166.923 290.286 162.157 291.345C161.513 291.489 157.445 293.428 157.952 293.555C160.335 294.151 166.22 286.592 167.716 285.287C174.066 279.749 180.97 274.844 187.458 269.465C197.363 261.255 207.196 254.034 213.828 242.81C216.068 239.02 217.526 234.911 219.958 231.264C221.429 229.057 215.199 238.589 214.612 239.389C205.489 251.831 193.007 261.679 181.899 272.245C177.562 276.371 172.988 280.317 168.785 284.575C168.265 285.102 163.786 291.239 164.224 289.706C167.547 278.078 181.367 266.033 188.955 256.779C199.239 244.238 209.395 231.535 218.96 218.436C225.68 209.232 215.473 227.535 214.114 229.411C207.23 238.913 199.524 247.845 192.447 257.207C190.243 260.124 181.755 276.194 176.91 277.163C173.818 277.781 173.206 271.182 172.777 269.465C169.667 257.026 170.381 247.555 179.334 237.607C183.895 232.539 190.83 224.468 198.078 223.353C209.969 221.524 221.225 215.855 233.642 215.585C253.868 215.145 274.106 205.773 294.222 203.041C317.321 199.904 343.622 197.951 364.566 186.863C368.427 184.818 349.2 188.838 346.962 189.286C322.97 194.084 299.201 200.613 275.05 204.467C260.601 206.772 246.124 207.888 231.504 207.888C227.682 207.888 227.67 207.97 231.646 207.175C237.099 206.084 242.378 204.564 247.896 203.754C267.252 200.911 287.135 198.981 306.195 194.489C313.04 192.875 319.53 191.741 325.723 188.644C326.898 188.057 332.974 185.914 329.429 187.433C314.206 193.957 300.177 199.499 283.959 203.326C254.378 210.306 223.828 212.001 194.087 217.509C181.452 219.849 197.32 215.915 201 215.015C222.296 209.805 244.114 207.367 265.714 203.754C298.046 198.345 334.955 195.373 365.492 182.515C372.484 179.571 381.624 179.664 389.083 179.664C391.174 179.664 384.89 179.812 382.811 179.593C378.356 179.124 372.531 176.736 368.272 175.246C366.223 174.529 364.246 173.926 362.642 175.531C357.11 181.062 349.173 184.861 342.116 188.074C324.33 196.173 303.757 199.364 284.671 202.471C275.661 203.938 266.839 206.099 257.731 206.605C254.992 206.757 248.525 209.299 246.542 210.952C240.143 216.285 261.693 203.919 269.633 201.402C300.629 191.574 332.776 181.706 364.78 175.887C365.303 175.792 370.054 175.57 370.054 176.101C370.054 182.317 329.674 189.035 325.581 189.927C294.025 196.81 262.244 202.437 230.363 207.602C219.829 209.309 209.408 211.425 198.933 213.447C198.603 213.51 191.883 215.36 191.307 215.015C190.707 214.655 201.179 208.689 201.214 208.672C219.598 199.728 238.76 193.653 258.729 189.357C285.007 183.705 311.618 180.491 338.053 175.816C349.102 173.862 360.617 171.383 371.051 167.121C374.344 165.776 374.723 164.27 378.321 164.27C380.186 164.27 387.322 163.995 387.301 163.985C371.302 155.985 343.939 171.663 329.144 175.744C303.582 182.796 277.829 188.738 251.958 194.417C243.953 196.175 236.04 200.145 231.076 191.21C229.784 188.885 231.939 186.95 232.074 184.796C232.433 179.054 228.254 195.7 225.517 200.76C210.926 227.74 189.574 251.844 167.574 273.029C158.858 281.422 170.875 263.006 172.848 260.77C185.41 246.533 198.079 233.479 212.118 220.716C222.501 211.277 232.495 201.301 243.049 192.065C244.228 191.034 254.094 182.242 253.883 182.23C246.661 181.829 221.239 188.467 217.677 180.947C215.128 175.566 221.733 177.048 225.517 176.457C239.884 174.212 254.217 174.787 268.707 174.462C287.976 174.029 307.485 173.754 326.721 172.609C340.222 171.805 357.313 169.299 370.553 172.609C375.161 173.761 382.381 174.338 387.016 172.965C394.036 170.885 374.768 170.692 373.76 170.684C349.108 170.507 324.423 171.218 299.781 170.399C282.068 169.811 261.068 169.88 243.762 164.555C238.425 162.913 254.937 164.571 260.511 164.911C284.443 166.371 308.211 167.117 332.209 166.764C348.887 166.519 365.517 165.402 382.17 164.555C386.211 164.35 391.592 165.13 395.497 163.628C397.827 162.732 400.906 161.704 403.408 161.704C405.778 161.704 407.246 160.546 409.11 160.421C410.198 160.349 407.037 160.235 406.259 161.704C398.586 176.199 389.896 190.026 380.887 203.754C375.578 211.843 368.293 217.984 363.568 226.489C360.105 232.722 353.523 237.244 350.098 243.238C347.008 248.644 341.655 251.199 337.269 255.354C335.278 257.24 325.618 267.298 331.425 260.2C339.904 249.837 352.195 241.711 361.715 232.191C372.99 220.916 383.254 209.085 394.001 197.339C398.679 192.225 402.133 187.943 404.62 181.589C405.825 178.509 410.038 173.613 409.039 170.114C407.95 166.304 401.495 166.986 399.132 165.268C393.012 160.817 362.845 209.477 358.508 216.44C357.329 218.333 341.602 241.242 344.325 241.242C348.299 241.242 353.769 244.418 348.102 247.657C336.125 254.501 324.277 261.94 311.327 266.9C302.526 270.27 293.393 273.061 284.529 276.307C282.621 277.006 272.315 279.728 273.126 279.728C285.07 279.728 298.466 274.466 310.329 272.673C320.477 271.138 330.589 269.554 340.405 266.472C341.453 266.143 344.027 264.707 342.971 264.405C337.406 262.815 325.432 267.595 319.879 268.895C303.567 272.713 287.307 277.139 271.415 282.437C253.353 288.457 234.971 294.628 216.608 299.613C210.622 301.238 204.626 303.166 198.434 303.818C197.172 303.951 187.536 304.666 188.171 303.96C192.274 299.402 199.674 296.008 204.848 293.127C217.671 285.988 231.689 280.453 245.615 275.88C270.533 267.698 296.475 264.563 321.875 258.49C326.099 257.479 338.254 252.697 334.133 254.071C321.327 258.34 309.13 264.039 296.075 267.897C270.069 275.584 244.32 283.843 217.962 290.276C207.539 292.821 194.71 297.688 183.895 297.688C182.514 297.688 186.352 296.425 187.601 295.835C194.297 292.673 201.325 290.706 208.554 289.207C237.865 283.131 267.169 278.803 296.787 274.597C309.539 272.786 320.737 270.703 332.637 267.042C335.912 266.034 339.039 265.617 342.472 265.617C348.859 265.617 355.049 266.674 361.359 266.9C367.164 267.107 356.905 265.058 355.514 264.619C348.437 262.384 339.739 262.392 332.423 263.336C324.782 264.322 328.124 265.023 332.708 267.185C362.299 281.143 395.273 278.061 426.571 284.147C434.26 285.642 442.419 285.693 450.233 286.214C450.587 286.238 457.234 287.426 454.723 287.426C448.08 287.426 441.442 285.859 435.052 284.218C409.968 277.778 386.052 266.295 360.788 261.483C341.492 257.808 398.877 272.981 418.518 273.314C444.592 273.756 363.557 279.171 340.548 266.9C335.84 264.389 327.006 260.898 327.006 254.499C327.006 244.73 335.519 237.04 341.474 230.124C361.881 206.426 389.524 184.977 402.125 155.575C405.401 147.932 406.732 146.116 397.35 148.305C375.216 153.47 352.536 156.775 330.142 161.063C309.639 164.989 289.075 168.017 268.707 172.68C259.59 174.767 247.032 176.822 240.056 183.798C237.917 185.937 234.873 186.751 232.858 189.215C231.351 191.056 232.074 195.183 232.074 189.856C232.074 186.673 232.074 183.489 232.074 180.306C232.074 176.936 235.116 174.243 235.851 179.023C239.181 200.67 215.59 208.556 205.133 222.997C197.079 234.119 189.555 245.968 179.975 256.066C173.355 263.045 169.627 271.923 162.157 277.733C156.708 281.971 151.047 283.321 144.839 286.143C137.647 289.411 138.15 247.953 133.293 243.095C129.907 239.71 135.071 252.682 137.426 256.85C143.415 267.446 152.281 274.566 160.09 283.577C160.917 284.531 168.572 295.926 165.792 291.63C159.151 281.367 155.785 269.948 149.97 259.345C149.546 258.572 141.203 244.32 144.696 252.503C150.402 265.87 161.158 276.725 169.213 288.708C175.758 298.446 166.584 294.954 158.38 294.125C147.2 292.996 139.358 289.864 133.008 280.726C121.745 264.518 134.704 247.576 144.268 234.115C159.465 212.728 166.101 187.935 175.057 163.7C175.842 161.576 178.619 152.323 178.122 159.281C177.207 172.095 167.929 186.908 161.872 198.052C158.4 204.441 153.945 210.68 151.538 217.58C150.843 219.574 151.095 218.331 151.467 217.153C156.823 200.19 170.054 185.094 178.692 169.686C180.829 165.875 183.446 162.129 185.106 158.069C186.458 154.766 181.445 164.197 179.619 167.263C168.979 185.131 158.291 202.968 147.689 220.859C141.49 231.32 133.989 241.854 129.444 253.216C128.73 255 129.551 249.284 130.299 247.514C132.294 242.799 135.607 238.452 138.282 234.115C149.798 215.441 161.532 196.9 172.349 177.811C175.317 172.573 178.1 167.238 181.044 161.989C181.405 161.345 185.628 154.501 185.819 155.646C187.49 165.673 183.15 176.287 181.4 186.007C181.016 188.142 180.833 195.612 177.053 192.351C172.213 188.175 169.898 182.334 169.356 176.101C168.993 171.928 167.971 164.332 169.926 160.421C171.686 156.901 178.718 150.52 183.325 151.441C190.203 152.817 197.277 171.836 201 177.099C206.786 185.277 213.063 193.096 219.673 200.618C219.799 200.762 224.392 206.888 223.094 206.32C209.476 200.362 200.768 182.637 194.942 170.257C190.999 161.879 209.117 182.173 216.252 188.074C224.443 194.85 249.151 214.96 241.41 207.674C224.125 191.405 203.907 177.287 185.463 162.274C180.908 158.567 183.74 159.138 188.029 159.138C206.219 159.138 224.365 159.119 242.194 155.005C259.741 150.956 277.723 146.31 295.861 146.31C328.007 146.31 231.578 145.027 199.432 145.027C192.607 145.027 185.239 145.027 196.724 145.027C215.431 145.027 234.115 145.094 252.814 144.385C270.963 143.698 290.684 145.916 308.69 143.103C319.562 141.404 304.357 143.37 301.776 143.744C285.7 146.074 269.336 147.268 253.17 148.875C240.208 150.164 201.375 154.371 214.256 152.439C234.896 149.343 255.449 148.061 276.262 146.31C284.989 145.575 295.33 146.762 303.915 144.742C309.992 143.312 316.218 142.461 322.516 142.461C329.691 142.461 336.865 142.461 344.04 142.461C349.909 142.461 340.416 142.067 338.98 141.82C334.58 141.061 321.267 140.174 325.723 139.895C330.914 139.571 336.199 139.895 341.403 139.895C352.26 139.895 362.263 147.999 372.334 151.441C379.945 154.042 387.306 157.579 394.713 160.706C396.451 161.44 399.231 162.469 400.557 163.985C410.052 174.836 377.936 144.949 364.209 140.537C359.892 139.149 356.373 138.612 351.88 138.612C346.291 138.612 346.327 138.463 350.739 141.25C357.898 145.771 364.452 151.298 371.764 155.575C378.968 159.788 401.77 168.416 393.43 168.119C378.754 167.594 363.711 163.758 349.243 161.419C340.927 160.075 316.017 156.573 324.44 156.573C332.151 156.573 340.262 162.215 347.247 164.983C356.094 168.488 365.744 171.846 374.9 174.462C383.066 176.795 359.224 167.918 351.309 164.84C345.108 162.429 339.699 159.218 333.991 155.86C331.994 154.686 325.474 152.724 327.79 152.724C333.082 152.724 338.353 156.949 343.113 158.853C350.655 161.87 357.16 166.522 364.209 170.399C369.008 173.039 360.513 163.182 360.931 159.424C361.114 157.773 369.99 161.656 370.624 161.989C372.538 162.997 368.856 162.856 367.773 161.989C364.462 159.341 358.942 160.149 356.512 155.29" stroke="white" stroke-width="3" stroke-linecap="round"/>
<path d="M481.568 266.548C499.317 266.548 517.024 265.34 534.72 265.34" stroke="white" stroke-width="3" stroke-linecap="round"/>
<path d="M462.24 221.852C472.317 213.791 482.948 206.394 492.44 197.693" stroke="white" stroke-width="3" stroke-linecap="round"/>
<path d="M436.873 120.382C453.982 102.021 467.64 78.4597 481.568 57.5671" stroke="white" stroke-width="3" stroke-linecap="round"/>
<path d="M353.522 64.815C356.899 43.9406 358.989 22.9264 361.978 2" stroke="white" stroke-width="3" stroke-linecap="round"/>
<path d="M268.964 81.7268C268.964 60.0062 268.14 37.8712 264.132 16.4958" stroke="white" stroke-width="3" stroke-linecap="round"/>
<path d="M177.157 97.4306C166.663 70.3655 156.349 43.7339 143.334 17.7039" stroke="white" stroke-width="3" stroke-linecap="round"/>
<path d="M80.5186 160.246C68.6861 149.892 58.8606 137.506 46.9636 127.227C37.6194 119.154 27.7028 111.9 17.7036 104.678" stroke="white" stroke-width="3" stroke-linecap="round"/>
<path d="M75.6868 264.132C58.3453 264.132 41.1116 262.924 23.7437 262.924" stroke="white" stroke-width="3" stroke-linecap="round"/>
<path d="M82.9347 346.275C63.5661 357.418 44.8181 370.074 24.549 379.561C16.9844 383.102 9.13406 386.69 2 390.97" stroke="white" stroke-width="3" stroke-linecap="round"/>
<path d="M93.8062 432.041C80.2851 448.053 64.106 462.17 49.782 477.542C44.0748 483.667 38.8664 489.856 32.1992 494.856" stroke="white" stroke-width="3" stroke-linecap="round"/>
</svg>
