<svg width="34" height="34" viewBox="0 0 34 34" fill="none" xmlns="http://www.w3.org/2000/svg">
<path d="M8.77902 17L5.38804 20.388L2 17L5.38804 13.612L8.77902 17ZM17 8.77315L22.806 14.5821L26.194 11.194L17 2L7.80598 11.194L11.194 14.5821L17 8.77315ZM28.6149 13.612L25.2268 17L28.6149 20.388L32 17L28.6149 13.612ZM17 25.2268L11.194 19.4209L7.80598 22.806L17 32L26.194 22.806L22.806 19.4209L17 25.2268ZM17 20.388L20.388 17L17 13.612L13.612 17L17 20.388Z" fill="white"/>
<path d="M9.13242 17.3537L9.48643 17L9.13242 16.6463L5.74144 13.2583L5.38789 12.905L5.03449 13.2584L1.64645 16.6464L1.29289 17L1.64645 17.3536L5.03449 20.7416L5.38789 21.095L5.74144 20.7417L9.13242 17.3537ZM17 9.48044L22.4523 14.9355L22.8059 15.2893L23.1595 14.9356L26.5476 11.5476L26.9011 11.194L26.5476 10.8405L17.3536 1.64645L17 1.29289L16.6464 1.64645L7.45243 10.8405L7.09887 11.194L7.45243 11.5476L10.8405 14.9356L11.1941 15.2893L11.5477 14.9355L17 9.48044ZM28.9686 13.2586L28.615 12.9047L28.2613 13.2584L24.8733 16.6464L24.5197 17L24.8733 17.3536L28.2613 20.7416L28.615 21.0953L28.9686 20.7414L32.3537 17.3534L32.7068 17L32.3537 16.6466L28.9686 13.2586ZM17 24.5197L11.5476 19.0673L11.1942 18.7139L10.8406 19.0672L7.45258 22.4523L7.09872 22.8058L7.45243 23.1595L16.6464 32.3536L17 32.7071L17.3536 32.3536L26.5476 23.1595L26.9013 22.8058L26.5474 22.4523L23.1594 19.0672L22.8058 18.7139L22.4524 19.0673L17 24.5197ZM16.6464 20.7416L17 21.0951L17.3536 20.7416L20.7416 17.3536L21.0951 17L20.7416 16.6464L17.3536 13.2584L17 12.9049L16.6464 13.2584L13.2584 16.6464L12.9049 17L13.2584 17.3536L16.6464 20.7416Z" stroke="black" stroke-opacity="0.24"/>
</svg>
