<svg width="33" height="29" viewBox="0 0 33 29" fill="none" xmlns="http://www.w3.org/2000/svg">
<path d="M24.4726 9.25223C23.906 8.93175 23.1775 8.93175 22.53 9.25223L17.9974 11.8961L14.9217 13.5786L10.47 16.2226C9.90339 16.543 9.17493 16.543 8.52742 16.2226L5.047 14.1395C4.48042 13.819 4.07572 13.178 4.07572 12.457V8.45104C4.07572 7.81009 4.39948 7.16914 5.047 6.76855L8.52742 4.76558C9.09399 4.4451 9.82245 4.4451 10.47 4.76558L13.9504 6.84866C14.517 7.16914 14.9217 7.81009 14.9217 8.53116V11.1751L17.9974 9.41246V6.68843C17.9974 6.04748 17.6736 5.40653 17.0261 5.00593L10.5509 1.24036C9.98433 0.919881 9.25587 0.919881 8.60836 1.24036L1.97128 5.08605C1.32376 5.40653 1 6.04748 1 6.68843V14.2196C1 14.8605 1.32376 15.5015 1.97128 15.9021L8.52742 19.6677C9.09399 19.9881 9.82245 19.9881 10.47 19.6677L14.9217 17.1039L17.9974 15.3412L22.4491 12.7774C23.0157 12.457 23.7441 12.457 24.3916 12.7774L27.8721 14.7804C28.4386 15.1009 28.8433 15.7418 28.8433 16.4629V20.4688C28.8433 21.1098 28.5196 21.7507 27.8721 22.1513L24.4726 24.1543C23.906 24.4748 23.1775 24.4748 22.53 24.1543L19.0496 22.1513C18.483 21.8309 18.0783 21.1899 18.0783 20.4688V17.905L15.0026 19.6677V22.3116C15.0026 22.9525 15.3264 23.5935 15.9739 23.9941L22.53 27.7596C23.0966 28.0801 23.8251 28.0801 24.4726 27.7596L31.0287 23.9941C31.5953 23.6736 32 23.0326 32 22.3116V14.7003C32 14.0593 31.6762 13.4184 31.0287 13.0178L24.4726 9.25223Z" fill="white"/>
<path d="M24.7216 8.81864L24.7188 8.81702C23.9903 8.405 23.0851 8.41961 22.3082 8.80411L22.2929 8.8117L22.2781 8.82033L17.7514 11.4608L14.6817 13.14L14.674 13.1442L14.6664 13.1487L10.2196 15.7897C9.81966 16.0139 9.27754 16.0297 8.7661 15.7827L5.30378 13.7104L5.30385 13.7103L5.29316 13.7043C4.87894 13.47 4.57572 12.9927 4.57572 12.457V8.45104C4.57572 7.98536 4.80779 7.50733 5.30371 7.1977L8.77506 5.19995C9.17525 4.9743 9.71868 4.95789 10.2313 5.20544L13.6936 7.27769L13.6935 7.27782L13.7042 7.28387C14.1184 7.51817 14.4217 7.99541 14.4217 8.53116V11.1751V12.0379L15.1703 11.6089L18.246 9.84628L18.4974 9.70221V9.41246V6.68843C18.4974 5.87419 18.0839 5.07241 17.2892 4.58073L17.2893 4.58057L17.2775 4.57371L10.8023 0.808129L10.8023 0.808098L10.7971 0.805152C10.0686 0.393127 9.16344 0.407743 8.38657 0.792237L8.37187 0.799511L8.35768 0.807733L1.73394 4.6457C0.904566 5.06388 0.5 5.88814 0.5 6.68843V14.2196C0.5 15.0338 0.913472 15.8356 1.70822 16.3273L1.71517 16.3316L1.72225 16.3356L8.27838 20.1012L8.28125 20.1029C9.00968 20.5149 9.91489 20.5003 10.6918 20.1158L10.7059 20.1088L10.7195 20.1009L15.1703 17.5377L15.1712 17.5371L18.246 15.7751L18.2469 15.7745L22.6953 13.2127C22.6958 13.2124 22.6963 13.2121 22.6968 13.2118C23.0979 12.9856 23.643 12.9697 24.1566 13.2191L27.6227 15.2138L27.6227 15.2138L27.6259 15.2156C28.0401 15.4499 28.3433 15.9272 28.3433 16.4629V20.4688C28.3433 20.9352 28.1106 21.4139 27.6133 21.7235L24.2228 23.7211C23.8219 23.9462 23.2778 23.9616 22.7651 23.7127L19.299 21.718L19.2958 21.7161C18.8816 21.4818 18.5783 21.0046 18.5783 20.4688V17.905V17.0422L17.8297 17.4712L14.754 19.2338L14.5026 19.3779V19.6677V22.3116C14.5026 23.1258 14.9161 23.9276 15.7108 24.4193L15.7178 24.4236L15.7249 24.4276L22.281 28.1932L22.2839 28.1948C23.0123 28.6069 23.9175 28.5923 24.6944 28.2078L24.7082 28.2009L24.7216 28.1932L31.2749 24.4293C31.2754 24.429 31.276 24.4286 31.2765 24.4283C31.9946 24.0214 32.5 23.2173 32.5 22.3116V14.7003C32.5 13.8861 32.0865 13.0843 31.2918 12.5926L31.2848 12.5883L31.2777 12.5842L24.7216 8.81864Z" stroke="black" stroke-opacity="0.24"/>
</svg>
