<svg width="172" height="37" viewBox="0 0 172 37" fill="none" xmlns="http://www.w3.org/2000/svg">
<path d="M0 22H4.66541V14.6226L0 9.99098V22ZM13.1631 0.132331V11.9098L1.13303 0H0V0.562406V2.64662V5.42556L4.66541 10.0571L7.86455 13.2331L13.3964 18.7248L16.6955 22H17.8285V0.132331H13.1631ZM21.1532 8.89925V12.6707V22H25.8186V12.6707H38.8484V8.0391H21.1532V8.89925ZM40.8146 4.79699V0.165414H21.1532V4.79699H40.8146ZM56.2248 22V8.0391H51.5593V22H56.2248ZM44.1613 0.165414V4.79699H51.5593H56.2248H63.9893V0.165414H44.1613Z" fill="url(#paint0_linear_6_2841)"/>
<path d="M165.195 0H156.408V1.35931H154.623V3.12638H156.408V4.48567L163.822 4.48568V6.25274H162.037V8.01978H160.252V9.78686H158.467V11.5539H156.683V13.321H154.897V15.0881H153.113V16.8551H151.328V18.6222H149.543V21.7486H152.701V19.9815H154.486V18.2145H156.271V16.4473H158.055V14.6803H159.84V12.9132H161.625V11.1461H163.41V9.37909H165.195V7.61204H166.98V5.84493L166.98 14.9521L168.353 14.9521V16.7192H170.138V14.9521L171.511 14.9521V6.25271H170.138V1.35929L165.195 1.35931V0Z" fill="url(#paint1_linear_6_2841)"/>
<path d="M68.3154 16.3127H71.0574V19.034H73.8061V21.7485H82.0455V19.034H84.7875V16.3127H82.0455V19.034H73.8061V16.3127H71.0574V5.44114H73.8061V2.71986H82.0455V5.44114H84.7875V0.00530971H73.8061V2.71986H71.0574V5.44114H68.3154V16.3127Z" fill="url(#paint2_linear_6_2841)"/>
<path fill-rule="evenodd" clip-rule="evenodd" d="M101.273 0.00530971H87.5429V2.71986H90.2849V19.034H87.5429V21.7485H93.0336V10.8769H95.7756V13.5982H98.5242V19.034H101.273V21.7485H106.764V19.034H101.273V13.5982H98.5242V10.8769H101.273V8.15569H104.015V2.71986H101.273V0.00530971ZM101.273 2.71986V8.15569H93.0336V2.71986H101.273Z" fill="url(#paint3_linear_6_2841)"/>
<path fill-rule="evenodd" clip-rule="evenodd" d="M112.248 19.034H109.506V21.7485H117.738V19.034H114.996V16.3127H123.236V19.034H120.487V21.7485H128.726V19.034H125.978V13.5982H123.236V5.44114H120.487V0.00530971H117.738V5.44114H114.996V13.5982H112.248V19.034ZM117.738 5.44114V13.5982H120.487V5.44114H117.738Z" fill="url(#paint4_linear_6_2841)"/>
<path d="M147.941 5.44114V0.00530971H131.468V2.71986H134.21V19.034H131.468V21.7485H139.701V19.034H136.959V10.8769H139.701V13.5982H142.45V5.44114H139.701V8.15569H136.959V2.71986H145.198V5.44114H147.941Z" fill="url(#paint5_linear_6_2841)"/>
<path fill-rule="evenodd" clip-rule="evenodd" d="M25.1718 31.421C25.5538 31.421 25.8636 31.1157 25.8636 30.7391C25.8636 30.3625 25.5538 30.0572 25.1718 30.0572C24.7897 30.0572 24.48 30.3625 24.48 30.7391C24.48 31.1157 24.7897 31.421 25.1718 31.421ZM25.1718 32.4782C26.1462 32.4782 26.9361 31.6996 26.9361 30.7391C26.9361 29.7786 26.1462 29 25.1718 29C24.1973 29 23.4074 29.7786 23.4074 30.7391C23.4074 31.6996 24.1973 32.4782 25.1718 32.4782ZM29.7591 35.9427C30.1412 35.9427 30.4509 35.6374 30.4509 35.2608C30.4509 34.8842 30.1412 34.5789 29.7591 34.5789C29.377 34.5789 29.0673 34.8842 29.0673 35.2608C29.0673 35.6374 29.377 35.9427 29.7591 35.9427ZM29.7591 36.9999C30.7335 36.9999 31.5234 36.2213 31.5234 35.2608C31.5234 34.3003 30.7335 33.5217 29.7591 33.5217C28.7847 33.5217 27.9947 34.3003 27.9947 35.2608C27.9947 36.2213 28.7847 36.9999 29.7591 36.9999ZM30.6455 30.683L29.7273 29.778L24.1131 35.3118L25.0313 36.2168L30.6455 30.683ZM9.59261 29.104C7.37692 29.104 5.58733 30.88 5.58733 33.052C5.58733 35.236 7.37692 36.9999 9.59261 36.9999C11.7961 36.9999 13.5979 35.236 13.5979 33.052C13.5979 30.88 11.7961 29.104 9.59261 29.104ZM9.59261 35.356C10.8709 35.356 11.9179 34.324 11.9179 33.052C11.9179 31.792 10.8709 30.76 9.59261 30.76C8.30215 30.76 7.25518 31.792 7.25518 33.052C7.25518 34.324 8.30215 35.356 9.59261 35.356ZM18.4144 29.104C16.1988 29.104 14.4092 30.88 14.4092 33.052C14.4092 35.236 16.1988 36.9999 18.4144 36.9999C20.618 36.9999 22.4197 35.236 22.4197 33.052C22.4197 30.88 20.618 29.104 18.4144 29.104ZM18.4144 35.356C19.6927 35.356 20.7397 34.324 20.7397 33.052C20.7397 31.792 19.6927 30.76 18.4144 30.76C17.124 30.76 16.077 31.792 16.077 33.052C16.077 34.324 17.124 35.356 18.4144 35.356ZM2.76437 29.1738H4.52874V36.9999H2.76437V29.1738ZM1 29.1739H2.76436V30.913H1V29.1739ZM40.3823 37H38.6779V32.644L40.3823 34.324V37ZM43.4867 33.34V29.0681H45.1911V37H44.7771L43.5719 35.812L41.551 33.82L40.3823 32.668L38.6779 30.9881V29.9801V29.2241V29.0201H39.0918L43.4867 33.34ZM46.4055 33.616V32.248V31.936H52.8699V33.616H48.1098V37H46.4055V33.616ZM53.5882 29.0801V30.7601H46.4055V29.0801H53.5882ZM59.2179 31.936V37H57.5135V31.936H59.2179ZM54.8109 30.7601V29.0801H62.0545V30.7601H59.2179H57.5135H54.8109ZM73.4854 33.892H70.235V35.296H73.5098C73.8263 35.212 74.0576 34.924 74.0576 34.6C74.0576 34.264 73.8263 33.964 73.4854 33.892ZM74.9463 32.788C75.1533 32.968 75.3237 33.184 75.4576 33.424C75.6646 33.784 75.7742 34.18 75.7742 34.6C75.7742 35.008 75.6646 35.416 75.4576 35.764C75.0316 36.532 74.2159 37 73.3272 37H73.3271C73.2297 37 73.1445 37 73.0472 36.988C72.9498 37 72.8646 37 72.7673 37H72.7672H68.5306V32.176H72.9133C73.2541 32.104 73.5098 31.804 73.5098 31.4561C73.5098 31.1321 73.2785 30.8441 72.962 30.7601H70.235H68.5306V29.0561H72.7672C73.6437 29.0561 74.4594 29.5121 74.8855 30.2561C74.8976 30.2681 74.9098 30.2801 74.9098 30.2921C75.1046 30.6521 75.2142 31.0481 75.2142 31.4561C75.2142 31.876 75.1046 32.284 74.9098 32.632C74.8976 32.644 74.8976 32.644 74.8976 32.656C74.8855 32.68 74.8733 32.704 74.8611 32.716C74.8733 32.728 74.8885 32.74 74.9037 32.752C74.9189 32.764 74.9342 32.776 74.9463 32.788ZM76.4723 37L76.728 36.532L79.3698 31.84L80.4411 33.736L78.7002 36.844L78.615 37H76.4723ZM82.1089 30.4721L85.5177 36.532L85.7733 37H83.6307L83.5455 36.844L81.9385 33.988L81.1472 32.584L81.1228 32.536L80.0515 30.6281L80.1367 30.4721L80.8307 29.2241L80.9159 29.0561H81.3298L81.4028 29.2241L82.1089 30.4721ZM91.5481 34.024L91.6333 33.844H93.4229L93.289 34.264C93.0333 35.056 92.5342 35.728 91.8525 36.232C91.1464 36.736 90.3185 37 89.4542 37C88.4802 37 87.5428 36.664 86.8002 36.028C86.0819 35.404 85.595 34.552 85.4611 33.616C85.4367 33.424 85.4245 33.22 85.4245 33.028C85.4245 32.836 85.4367 32.656 85.4611 32.464C85.595 31.5281 86.0698 30.6641 86.8002 30.0401C87.5307 29.4041 88.4802 29.0561 89.4542 29.0561C90.3429 29.0561 91.195 29.3321 91.9011 29.8601C92.5829 30.3761 93.0942 31.108 93.3255 31.924L93.4473 32.32H91.682L91.5968 32.128C91.2316 31.2881 90.3916 30.7361 89.4542 30.7361C88.3463 30.7361 87.3846 31.504 87.1776 32.572C87.1411 32.728 87.1289 32.872 87.1289 33.028C87.1289 33.184 87.1411 33.352 87.1776 33.496C87.3967 34.552 88.3585 35.32 89.4542 35.32C90.3429 35.32 91.1585 34.816 91.5481 34.024ZM94.674 29.0801H96.3784V30.9521L94.674 32.632V29.0801ZM98.3506 33.04L101.82 36.472L102.368 37H99.9576L99.8602 36.916L97.1454 34.228L96.3784 34.984V37H94.674V34.288L97.4132 31.588V31.576L99.9576 29.0801H102.368L101.82 29.6201L98.3506 33.04ZM103.602 29.3921V29.0801H110.785V30.7601H103.602V29.3921ZM110.067 33.616H105.307V35.32H110.785V37H103.602V35.632V35.32V31.924L105.307 31.936H110.067V33.616ZM117.949 30.0761C118.667 30.7001 119.13 31.564 119.264 32.5C119.3 32.68 119.312 32.872 119.312 33.052C119.312 33.256 119.288 33.448 119.264 33.64C119.008 35.404 117.559 36.784 115.77 37H115.745H112.008V31.936H113.712V35.32H115.636C116.585 35.176 117.352 34.456 117.547 33.532C117.584 33.376 117.596 33.22 117.596 33.052C117.596 32.908 117.584 32.752 117.559 32.608C117.437 32.056 117.133 31.564 116.671 31.228C116.391 31.024 116.074 30.8801 115.733 30.8081C115.624 30.7841 115.502 30.7721 115.38 30.7601H112.008V29.0801L115.587 29.0921C116.451 29.1521 117.291 29.5001 117.949 30.0761ZM130.742 33.892H127.491V35.296H130.766C131.083 35.212 131.314 34.924 131.314 34.6C131.314 34.264 131.083 33.964 130.742 33.892ZM132.203 32.788C132.409 32.968 132.58 33.184 132.714 33.424C132.921 33.784 133.03 34.18 133.03 34.6C133.03 35.008 132.921 35.416 132.714 35.764C132.288 36.532 131.472 37 130.583 37H130.583C130.486 37 130.401 37 130.303 36.988C130.206 37 130.121 37 130.024 37H130.023H125.787V32.176H130.169C130.51 32.104 130.766 31.804 130.766 31.4561C130.766 31.1321 130.535 30.8441 130.218 30.7601H127.491H125.787V29.0561H130.023C130.9 29.0561 131.716 29.5121 132.142 30.2561C132.154 30.2681 132.166 30.2801 132.166 30.2921C132.361 30.6521 132.47 31.0481 132.47 31.4561C132.47 31.876 132.361 32.284 132.166 32.632L132.166 32.6321C132.154 32.644 132.154 32.644 132.154 32.656L132.154 32.6562C132.142 32.6801 132.129 32.7041 132.117 32.716C132.13 32.728 132.145 32.74 132.16 32.752C132.175 32.764 132.19 32.776 132.203 32.788ZM138.335 29.1881L138.432 29.0561H140.538L140.173 29.5601L137.531 33.112L137.458 33.22H137.446V33.232L137.385 33.304V37H135.681V33.316L135.62 33.232V33.22H135.608L135.535 33.112L132.893 29.5601L132.528 29.0561H134.634L134.731 29.1881L136.533 31.612L138.335 29.1881ZM147.02 29.3921V29.0801H154.203V30.7601H147.02V29.3921ZM153.485 33.616H148.725V35.32H154.203V37H147.02V35.632V35.32V31.924L148.725 31.936H153.485V33.616ZM159.833 31.936V37H158.128V31.936H159.833ZM155.426 30.7601V29.0801H162.669V30.7601H159.833H158.128H155.426ZM169.296 31.948V29.0921H171V37H169.296V33.64H165.595V37H163.89V29.0921H165.595V31.948H169.296Z" fill="url(#paint6_linear_6_2841)"/>
<defs>
<linearGradient id="paint0_linear_6_2841" x1="0.131031" y1="22.0113" x2="65.803" y2="13.5126" gradientUnits="userSpaceOnUse">
<stop stop-color="#00C2FF"/>
<stop offset="1" stop-color="#00C2FF" stop-opacity="0.7"/>
</linearGradient>
<linearGradient id="paint1_linear_6_2841" x1="67.1858" y1="21.6948" x2="156.388" y2="-28.8436" gradientUnits="userSpaceOnUse">
<stop stop-color="white"/>
<stop offset="1" stop-color="white" stop-opacity="0.7"/>
</linearGradient>
<linearGradient id="paint2_linear_6_2841" x1="67.1858" y1="21.6948" x2="156.388" y2="-28.8436" gradientUnits="userSpaceOnUse">
<stop stop-color="white"/>
<stop offset="1" stop-color="white" stop-opacity="0.7"/>
</linearGradient>
<linearGradient id="paint3_linear_6_2841" x1="67.1858" y1="21.6948" x2="156.388" y2="-28.8436" gradientUnits="userSpaceOnUse">
<stop stop-color="white"/>
<stop offset="1" stop-color="white" stop-opacity="0.7"/>
</linearGradient>
<linearGradient id="paint4_linear_6_2841" x1="67.1858" y1="21.6948" x2="156.388" y2="-28.8436" gradientUnits="userSpaceOnUse">
<stop stop-color="white"/>
<stop offset="1" stop-color="white" stop-opacity="0.7"/>
</linearGradient>
<linearGradient id="paint5_linear_6_2841" x1="67.1858" y1="21.6948" x2="156.388" y2="-28.8436" gradientUnits="userSpaceOnUse">
<stop stop-color="white"/>
<stop offset="1" stop-color="white" stop-opacity="0.7"/>
</linearGradient>
<linearGradient id="paint6_linear_6_2841" x1="0.999999" y1="37" x2="76.0847" y2="-51.5144" gradientUnits="userSpaceOnUse">
<stop stop-color="#5B5B5B"/>
<stop offset="1" stop-color="#838383"/>
</linearGradient>
</defs>
</svg>
