<svg width="140" height="36" viewBox="0 0 140 36" fill="none" xmlns="http://www.w3.org/2000/svg">
<path d="M63.4862 9.40072L58.6005 26.5328C58.1304 28.1532 56.9005 28.5846 55.3445 28.5846C53.7893 28.5846 52.5595 28.1532 52.0885 26.5328L47.2054 9.40072C47.1689 9.29286 47.1689 9.21952 47.1689 9.14876C47.1689 8.78809 47.3858 8.53613 47.7475 8.53613H49.7371C50.0268 8.53613 50.2801 8.75185 50.4249 9.22038L54.5856 24.9132C54.8024 25.7769 54.9837 25.9572 55.3453 25.9572C55.6706 25.9572 55.8883 25.7769 56.1051 24.9132L60.2658 9.22038C60.4106 8.75271 60.6639 8.53613 60.9527 8.53613H62.9432C63.3049 8.53613 63.5217 8.78809 63.5217 9.14876C63.5217 9.22038 63.5217 9.29286 63.4862 9.40072V9.40072Z" fill="url(#paint0_linear_6_2832)"/>
<g clip-path="url(#clip0_6_2832)">
<path d="M18.511 36C28.4519 36 36.511 27.9409 36.511 18C36.511 8.05909 28.4519 0 18.511 0C8.57008 0 0.510986 8.05909 0.510986 18C0.510986 27.9409 8.57008 36 18.511 36Z" fill="url(#paint1_linear_6_2832)"/>
<path d="M27.6964 19.0021H9.32618C9.03184 19.003 8.74979 19.1202 8.54162 19.3283C8.33344 19.5364 8.21606 19.8184 8.21509 20.1128C8.21584 20.4073 8.33313 20.6895 8.54133 20.8977C8.74952 21.106 9.03169 21.2234 9.32618 21.2243H13.9415L17.069 29.4834C17.153 29.703 17.3041 29.8904 17.501 30.0189C17.6978 30.1474 17.9302 30.2104 18.165 30.1989C18.3998 30.2104 18.6322 30.1474 18.829 30.0189C19.0259 29.8904 19.177 29.703 19.261 29.4834L22.3885 21.2239H27.6968C27.9912 21.223 28.2733 21.1057 28.4815 20.8975C28.6897 20.6893 28.807 20.4072 28.8079 20.1128C28.807 19.8184 28.6897 19.5362 28.4815 19.3281C28.2733 19.1199 27.9912 19.0025 27.6968 19.0017L27.6964 19.0021ZM18.1646 26.1023L16.3171 21.2235H20.012L18.1646 26.1019V26.1023ZM9.32618 16.928H27.6968C27.9913 16.9271 28.2735 16.8097 28.4817 16.6015C28.6899 16.3932 28.8072 16.111 28.8079 15.8165C28.807 15.5221 28.6897 15.24 28.4815 15.0318C28.2733 14.8236 27.9912 14.7063 27.6968 14.7054H24.8569L27.147 8.657C27.2505 8.38136 27.2407 8.07597 27.1197 7.80754C26.9988 7.5391 26.7765 7.32945 26.5015 7.22437C26.2258 7.12091 25.9203 7.13077 25.6519 7.25181C25.3834 7.37285 25.1738 7.59521 25.0688 7.87032L22.4801 14.7054H13.8487L11.2604 7.87032C11.1553 7.59528 10.9456 7.37298 10.6772 7.25196C10.4088 7.13094 10.1034 7.12102 9.82772 7.22437C9.55269 7.32945 9.33042 7.5391 9.20946 7.80754C9.08851 8.07597 9.0787 8.38136 9.18218 8.657L11.4727 14.7054H9.32618C9.03176 14.7063 8.74966 14.8236 8.54147 15.0318C8.33329 15.24 8.21595 15.5221 8.21509 15.8165C8.21595 16.1109 8.33329 16.393 8.54147 16.6012C8.74966 16.8094 9.03176 16.9267 9.32618 16.9276V16.928Z" fill="white"/>
</g>
<path d="M82.0482 19.4439H69.9272V19.9486C69.9272 24.231 71.6271 25.8152 74.956 25.8152C77.0549 25.8152 79.7324 25.6711 81.396 25.4192H81.5772C81.8669 25.4192 82.1566 25.5633 82.1566 25.9231V27.1466C82.1566 27.6143 82.0118 27.8662 81.4324 27.9749C79.2992 28.3914 77.1298 28.5963 74.956 28.5867C70.7954 28.5867 66.7432 26.6427 66.7432 19.9486V16.7086C66.7432 11.5617 69.6019 8.28711 74.7756 8.28711C80.0577 8.28711 82.7351 11.5979 82.7351 16.7086V18.6526C82.7351 19.1203 82.4819 19.4439 82.0482 19.4439ZM79.5156 16.7086C79.5156 12.6411 77.9596 11.0569 74.7756 11.0569C71.6636 11.0569 69.9272 12.8214 69.9272 16.7086V17.0322H79.5147V16.7086H79.5156Z" fill="url(#paint2_linear_6_2832)"/>
<path d="M101.586 28.3345H99.8487C99.6569 28.3338 99.4732 28.2577 99.3377 28.1227C99.2021 27.9877 99.1258 27.8048 99.1253 27.614V15.773C99.1253 12.1378 97.8955 11.0213 95.146 11.0213C93.6256 11.0213 91.9256 11.5977 90.2611 12.4251V27.614C90.2611 27.9747 89.9359 28.3345 89.5378 28.3345H87.7649C87.4033 28.3345 87.0771 28.0101 87.0771 27.614V9.2576C87.0771 8.86155 87.3668 8.53797 87.7649 8.53797H89.5733C89.9723 8.53797 90.2611 8.86155 90.2611 9.2576V9.94184C92.2508 8.82617 93.8797 8.28516 96.0142 8.28516C100.355 8.28516 102.309 10.9859 102.309 15.7722V27.614C102.309 28.011 101.983 28.3345 101.585 28.3345H101.586Z" fill="url(#paint3_linear_6_2832)"/>
<path d="M121.775 28.3337H119.965C119.566 28.3337 119.277 28.0101 119.277 27.614V26.9298C117.287 28.0455 115.659 28.5856 113.525 28.5856C109.183 28.5856 107.229 25.8866 107.229 21.0986V9.2576C107.229 8.86068 107.555 8.53711 107.953 8.53711H109.69C110.087 8.53711 110.413 8.86154 110.413 9.2576V21.0986C110.413 24.7347 111.643 25.8504 114.393 25.8504C115.912 25.8504 117.612 25.274 119.278 24.4465V9.2576C119.278 8.89692 119.603 8.53711 120.001 8.53711H121.774C122.136 8.53711 122.462 8.86154 122.462 9.2576V27.6132C122.462 28.0092 122.172 28.3328 121.774 28.3328L121.775 28.3337Z" fill="url(#paint4_linear_6_2832)"/>
<path d="M133.209 28.5856C131.87 28.5856 129.265 28.4778 127.492 28.0463C127.021 27.9376 126.732 27.7219 126.732 27.3258V26.0661C126.732 25.7425 127.021 25.5268 127.383 25.5268H127.529C129.265 25.7425 131.906 25.9228 133.209 25.9228C135.56 25.9228 136.79 25.3102 136.79 23.3671C136.79 22.2868 136.139 21.6034 134.077 20.379L130.423 18.2192C128.216 16.8879 126.732 15.3399 126.732 13.0723C126.732 9.32921 129.555 8.28516 133.281 8.28516C135.307 8.28516 137.225 8.46549 138.925 8.75283C139.396 8.82444 139.612 9.0764 139.612 9.47331V10.6606C139.612 11.0929 139.359 11.2732 138.997 11.2732H138.889C137.622 11.1645 135.307 10.985 133.281 10.985C131.255 10.985 129.916 11.237 129.916 13.0732C129.916 14.1517 130.748 14.836 132.412 15.8084L135.994 17.931C138.997 19.6947 139.974 21.2427 139.974 23.3662C139.974 27.0377 137.26 28.5865 133.209 28.5865V28.5856Z" fill="url(#paint5_linear_6_2832)"/>
<defs>
<linearGradient id="paint0_linear_6_2832" x1="55.3453" y1="6.82422" x2="55.3453" y2="31.8178" gradientUnits="userSpaceOnUse">
<stop stop-color="#F8B342"/>
<stop offset="1" stop-color="#F2C35E"/>
</linearGradient>
<linearGradient id="paint1_linear_6_2832" x1="4.29835" y1="29.3195" x2="32.3293" y2="6.99423" gradientUnits="userSpaceOnUse">
<stop stop-color="#F8B342"/>
<stop offset="1" stop-color="#F2C35E"/>
</linearGradient>
<linearGradient id="paint2_linear_6_2832" x1="74.7392" y1="6.82543" x2="74.7392" y2="31.8198" gradientUnits="userSpaceOnUse">
<stop stop-color="#F8B342"/>
<stop offset="1" stop-color="#F2C35E"/>
</linearGradient>
<linearGradient id="paint3_linear_6_2832" x1="94.6932" y1="6.8252" x2="94.6932" y2="31.8196" gradientUnits="userSpaceOnUse">
<stop stop-color="#F8B342"/>
<stop offset="1" stop-color="#F2C35E"/>
</linearGradient>
<linearGradient id="paint4_linear_6_2832" x1="114.846" y1="6.8252" x2="114.846" y2="31.8187" gradientUnits="userSpaceOnUse">
<stop stop-color="#F8B342"/>
<stop offset="1" stop-color="#F2C35E"/>
</linearGradient>
<linearGradient id="paint5_linear_6_2832" x1="133.353" y1="6.8252" x2="133.353" y2="31.8187" gradientUnits="userSpaceOnUse">
<stop stop-color="#F8B342"/>
<stop offset="1" stop-color="#F2C35E"/>
</linearGradient>
<clipPath id="clip0_6_2832">
<rect width="36" height="36" fill="white" transform="translate(0.510986)"/>
</clipPath>
</defs>
</svg>
