<svg width="166" height="46" viewBox="0 0 166 46" fill="none" xmlns="http://www.w3.org/2000/svg">
<g clip-path="url(#clip0_6_2778)">
<path d="M23.116 19.3043C23.116 22.3242 21.9366 25.0554 20.0068 27.0851C18.0853 25.0554 16.8977 22.3242 16.8977 19.3043C16.8977 16.2843 18.077 13.5532 20.0068 11.5234C21.9366 13.5532 23.116 16.2926 23.116 19.3043Z" fill="#0BAE4D"/>
<path d="M22.8523 21.7547C22.407 23.7927 21.4009 25.6245 20.0071 27.0849C18.6216 25.6245 17.6155 23.7927 17.1702 21.7547C18.0773 21.5154 19.0257 21.3916 20.0071 21.3916C20.9968 21.3916 21.9452 21.5154 22.8523 21.7547Z" fill="#6CBD45"/>
<path d="M31.3132 32.6958C31.3132 38.942 26.2496 44 20.0066 44C13.7637 44 8.70825 38.942 8.70825 32.6958C8.70825 31.8542 8.79896 31.0373 8.9804 30.2452C9.88756 30.4845 10.836 30.6082 11.8174 30.6082C15.0419 30.6082 17.9614 29.2551 20.0149 27.085C22.0684 29.2633 24.9878 30.6082 28.2124 30.6082C29.202 30.6082 30.1504 30.4845 31.0576 30.2452C31.2225 31.0373 31.3132 31.8542 31.3132 32.6958Z" fill="#FFDE16"/>
<path d="M20.0064 27.0852C17.9529 29.2635 15.0335 30.6085 11.8089 30.6085C10.8275 30.6085 9.87908 30.4847 8.97192 30.2454C9.88733 26.0951 13.0789 22.8028 17.1694 21.7549C17.6148 23.793 18.6209 25.633 20.0064 27.0852Z" fill="#0054A6"/>
<path d="M16.8978 19.3041C16.8978 20.1458 16.9885 20.9626 17.1699 21.7547C13.0794 22.8026 9.88781 26.1031 8.9724 30.2452C4.10668 28.991 0.510986 24.5684 0.510986 19.3041C0.510986 13.058 5.56639 8 11.8094 8C15.0339 8 17.9534 9.3532 20.0069 11.5233C18.0853 13.5531 16.8978 16.2925 16.8978 19.3041Z" fill="#213F9A"/>
<path d="M31.0498 30.2532C30.1426 30.4924 29.1942 30.6162 28.2046 30.6162C24.98 30.6162 22.0606 29.263 20.0071 27.0929C21.4008 25.6325 22.3987 23.8007 22.8523 21.7627C26.9345 22.8188 30.1344 26.1028 31.0498 30.2532Z" fill="#6EB544"/>
<path d="M39.5108 19.3041C39.5108 24.5684 35.9151 28.991 31.0494 30.2452C30.134 26.0949 26.9424 22.8109 22.8519 21.7547C23.0251 20.9626 23.124 20.1458 23.124 19.3041C23.124 16.2842 21.9447 13.5531 20.0149 11.5233C22.0684 9.34494 24.9878 8 28.2124 8C34.4471 8 39.5108 13.058 39.5108 19.3041Z" fill="#0DA14B"/>
<path d="M7.02661 14.5596L16.6096 17.6868L12.0573 19.5433L10.2017 24.0485L7.02661 14.5596Z" fill="white"/>
<path d="M29.8212 24.3047L27.9657 19.7995L23.4133 17.943L32.9963 14.8076L29.8212 24.3047Z" fill="white"/>
<path d="M15.4954 31.2934L19.99 33.1746L24.5176 31.2686L19.957 40.2624L15.4954 31.2934Z" fill="white"/>
<path d="M58.589 28.6285H51.511V7.61914H58.589C60.4061 7.61914 61.8927 7.80901 63.0737 8.18875C64.2465 8.56848 65.1633 9.19588 65.8075 10.0709C66.46 10.946 66.906 11.9779 67.1537 13.1584C67.4015 14.3388 67.5254 15.8826 67.5254 17.773C67.5254 19.6717 67.4098 21.2402 67.1868 22.4867C66.9638 23.7332 66.5343 24.8477 65.9066 25.8218C65.2789 26.8041 64.3622 27.5141 63.1728 27.9516C61.967 28.4056 60.4391 28.6285 58.589 28.6285ZM63.0655 20.2826C63.1068 19.6221 63.1233 18.7141 63.1233 17.5501C63.1233 16.3861 63.082 15.4533 62.9994 14.7516C62.9168 14.0499 62.7186 13.4143 62.413 12.8364C62.1074 12.2585 61.6449 11.8623 61.0337 11.6477C60.4226 11.433 59.6049 11.3257 58.5725 11.3257H55.7562V24.9137H58.5725C60.117 24.9137 61.2402 24.5257 61.9422 23.7415C62.5534 23.1058 62.9251 21.9501 63.0655 20.2826Z" fill="white"/>
<path d="M75.0169 24.7159C75.5041 25.1369 76.1979 25.3516 77.1064 25.3516C79.0225 25.3516 80.7321 25.2938 82.2353 25.17L83.1025 25.0792L83.1603 28.1336C80.7899 28.7114 78.6508 29.0004 76.7347 29.0004C74.4057 29.0004 72.7208 28.3812 71.6637 27.1429C70.6065 25.9047 70.0862 23.8987 70.0862 21.1167C70.0862 15.5775 72.3657 12.8037 76.9164 12.8037C81.4094 12.8037 83.6558 15.1317 83.6558 19.7876L83.3503 22.6604H74.2653C74.2735 23.6097 74.5296 24.2949 75.0169 24.7159ZM79.5759 19.5152C79.5759 18.2769 79.3776 17.4184 78.9895 16.9396C78.6013 16.4525 77.9158 16.2131 76.933 16.2131C75.9501 16.2131 75.2646 16.469 74.8599 16.9726C74.4552 17.4762 74.2488 18.3264 74.224 19.5234H79.5759V19.5152Z" fill="white"/>
<path d="M86.9924 28.6285V7.61914H100.405V11.3257H91.2541V17.5006H98.7369V21.2071H91.2541V28.6285H86.9924Z" fill="white"/>
<path d="M103.032 11.2019V7H107.169V11.2019H103.032ZM103.032 28.6285V13.1749H107.169V28.6285H103.032Z" fill="white"/>
<path d="M111.001 28.6289V13.1752H115.114V14.8097C116.849 13.7779 118.492 13.1092 120.061 12.8037V16.9726C118.393 17.3193 116.956 17.6825 115.767 18.054L115.147 18.2687V28.6289H111.001Z" fill="white"/>
<path d="M126.66 24.7159C127.148 25.1369 127.841 25.3516 128.75 25.3516C130.666 25.3516 132.376 25.2938 133.879 25.17L134.746 25.0792L134.804 28.1336C132.434 28.7114 130.294 29.0004 128.378 29.0004C126.049 29.0004 124.364 28.3812 123.307 27.1429C122.25 25.9047 121.73 23.8987 121.73 21.1167C121.73 15.5775 124.009 12.8037 128.56 12.8037C133.053 12.8037 135.299 15.1317 135.299 19.7876L134.994 22.6604H125.909C125.925 23.6097 126.173 24.2949 126.66 24.7159ZM131.219 19.5152C131.219 18.2769 131.021 17.4184 130.633 16.9396C130.245 16.4525 129.559 16.2131 128.577 16.2131C127.594 16.2131 126.908 16.469 126.504 16.9726C126.099 17.4762 125.892 18.3264 125.868 19.5234H131.219V19.5152Z" fill="white"/>
<path d="M141.204 7.61914L145.103 15.346L149.092 7.61914H153.51L147.457 18.3426L153.51 28.6285H148.778L144.88 21.3722L140.891 28.6285H136.472L142.526 18.5572L136.472 7.61914H141.204Z" fill="white"/>
<path d="M54.2606 36.3851C53.281 36.3851 52.7953 36.7314 52.7953 37.4158C52.7953 37.7704 52.9105 38.026 53.141 38.1744C53.3715 38.3228 53.8819 38.5125 54.6723 38.7269C55.4626 38.9495 56.0224 39.2052 56.3434 39.5103C56.6645 39.8154 56.8292 40.2936 56.8292 40.9533C56.8292 41.7861 56.5904 42.4128 56.1212 42.8251C55.6437 43.2374 55.0016 43.4435 54.1865 43.4435C53.5279 43.4435 52.8035 43.3693 52.0132 43.2127L51.5933 43.1302L51.7168 42.0995C52.7541 42.2396 53.5526 42.3056 54.096 42.3056C55.051 42.3056 55.5284 41.8851 55.5284 41.0357C55.5284 40.7059 55.4214 40.4585 55.2074 40.3019C54.9933 40.1452 54.5076 39.972 53.7502 39.7824C52.9928 39.5927 52.433 39.3288 52.0626 38.999C51.6921 38.6692 51.511 38.1414 51.511 37.424C51.511 36.7067 51.7415 36.1624 52.2108 35.7996C52.68 35.4368 53.3221 35.2471 54.1454 35.2471C54.7381 35.2471 55.4379 35.3131 56.2447 35.4533L56.648 35.5192L56.541 36.5582C55.4626 36.451 54.7052 36.3851 54.2606 36.3851Z" fill="white"/>
<path d="M62.9705 39.3126V41.9513C62.9787 42.1244 63.0199 42.2481 63.1022 42.3306C63.1845 42.413 63.308 42.4625 63.4809 42.4872L63.448 43.452C62.7894 43.452 62.2707 43.3118 61.9085 43.0232C61.2911 43.3118 60.6736 43.452 60.048 43.452C58.9037 43.452 58.3274 42.8418 58.3274 41.6132C58.3274 41.0277 58.4838 40.5989 58.7967 40.3433C59.1095 40.0794 59.587 39.9228 60.2373 39.865L61.7274 39.7414V39.3208C61.7274 39.0157 61.6615 38.7931 61.5216 38.6694C61.3899 38.5457 61.1923 38.488 60.9289 38.488C60.4349 38.488 59.8175 38.521 59.0766 38.5787L58.7061 38.6034L58.6567 37.7129C59.4964 37.515 60.2703 37.416 60.97 37.416C61.6698 37.416 62.1802 37.5644 62.493 37.8695C62.8141 38.1664 62.9705 38.6529 62.9705 39.3126ZM60.3855 40.7474C59.8504 40.7968 59.587 41.0854 59.587 41.6132C59.587 42.1492 59.8257 42.413 60.295 42.413C60.6819 42.413 61.0853 42.3553 61.5216 42.2316L61.7274 42.1656V40.6237L60.3855 40.7474Z" fill="white"/>
<path d="M66.6997 38.6117V43.3201H65.4483V38.6117H64.7815V37.5315H65.4483V37.1604C65.4483 36.3358 65.5636 35.7669 65.8106 35.4618C66.0493 35.1567 66.4692 35 67.0784 35L68.3297 35.1154L68.3215 36.1462C67.9428 36.1297 67.6299 36.1214 67.383 36.1214C67.136 36.1214 66.9549 36.1957 66.8561 36.3441C66.7573 36.4925 66.7079 36.7729 66.7079 37.1687V37.5315H68.2309V38.6117H66.6997Z" fill="white"/>
<path d="M73.87 42.2815L74.1911 42.2486L74.2158 43.1886C73.3349 43.37 72.5611 43.4525 71.8778 43.4525C71.0216 43.4525 70.4042 43.2133 70.0337 42.7433C69.6632 42.2733 69.4739 41.5229 69.4739 40.4839C69.4739 38.4307 70.3136 37.4082 71.9848 37.4082C73.6066 37.4082 74.4133 38.2905 74.4133 40.0552L74.331 40.9622H70.7499C70.7581 41.4405 70.8652 41.795 71.0627 42.0177C71.2603 42.2403 71.639 42.3558 72.1824 42.3558C72.7257 42.3475 73.2937 42.3228 73.87 42.2815ZM73.1702 39.9892C73.1702 39.4202 73.0797 39.0162 72.8986 38.7935C72.7175 38.5627 72.4129 38.4555 71.9765 38.4555C71.5485 38.4555 71.2274 38.5791 71.0381 38.8183C70.8405 39.0574 70.7417 39.4532 70.7335 39.9974H73.1702V39.9892Z" fill="white"/>
<path d="M82.4977 43.3202H81.2052V40.0548L78.719 35.3877H80.1597L81.8391 38.7932L83.5268 35.3877H84.9593L82.4977 40.0548V43.3202Z" fill="white"/>
<path d="M86.4163 36.5493V35.2217H87.6758V36.5493H86.4163ZM86.4163 43.3191V37.5305H87.6758V43.3191H86.4163Z" fill="white"/>
<path d="M93.9491 42.2815L94.2702 42.2486L94.2949 43.1886C93.414 43.37 92.6402 43.4525 91.9569 43.4525C91.1007 43.4525 90.4833 43.2133 90.1128 42.7433C89.7423 42.2733 89.553 41.5229 89.553 40.4839C89.553 38.4307 90.3927 37.4082 92.0639 37.4082C93.6857 37.4082 94.4925 38.2905 94.4925 40.0552L94.4101 40.9622H90.829C90.8373 41.4405 90.9443 41.795 91.1419 42.0177C91.3394 42.2403 91.7181 42.3558 92.2615 42.3558C92.813 42.3475 93.3728 42.3228 93.9491 42.2815ZM93.2576 39.9892C93.2576 39.4202 93.167 39.0162 92.9859 38.7935C92.8048 38.5627 92.5002 38.4555 92.0639 38.4555C91.6358 38.4555 91.3147 38.5791 91.1254 38.8183C90.9278 39.0574 90.829 39.4532 90.8208 39.9974H93.2576V39.9892Z" fill="white"/>
<path d="M96.4104 43.3194V35.123H97.6699V43.3194H96.4104Z" fill="white"/>
<path d="M104.619 35.123V43.3194H103.367V43.0225C102.807 43.3111 102.289 43.4513 101.82 43.4513C101.062 43.4513 100.511 43.2204 100.165 42.7669C99.8107 42.3134 99.6379 41.5465 99.6379 40.4745C99.6379 39.4026 99.8354 38.6192 100.222 38.1327C100.609 37.6462 101.219 37.4071 102.042 37.4071C102.322 37.4071 102.758 37.4566 103.359 37.5555V35.123H104.619ZM103.161 42.1155L103.359 42.033V38.6027C102.898 38.5285 102.47 38.4873 102.075 38.4873C101.293 38.4873 100.906 39.1387 100.906 40.4333C100.906 41.1425 100.996 41.6372 101.177 41.9093C101.359 42.1814 101.647 42.3216 102.042 42.3216C102.437 42.3216 102.807 42.2556 103.161 42.1155Z" fill="white"/>
<path d="M110.11 43.3202V35.3877H115.024V36.5091H111.394V39.1808H114.407V40.3022H111.394V43.312H110.11V43.3202Z" fill="white"/>
<path d="M120.705 39.3126V41.9513C120.713 42.1244 120.754 42.2481 120.837 42.3306C120.919 42.413 121.042 42.4625 121.215 42.4872L121.182 43.452C120.524 43.452 120.005 43.3118 119.643 43.0232C119.025 43.3118 118.408 43.452 117.782 43.452C116.638 43.452 116.062 42.8418 116.062 41.6132C116.062 41.0277 116.218 40.5989 116.531 40.3433C116.844 40.0794 117.321 39.9228 117.972 39.865L119.462 39.7414V39.3208C119.462 39.0157 119.396 38.7931 119.256 38.6694C119.124 38.5457 118.927 38.488 118.663 38.488C118.169 38.488 117.552 38.521 116.811 38.5787L116.44 38.6034L116.391 37.7129C117.231 37.515 118.005 37.416 118.704 37.416C119.412 37.416 119.915 37.5644 120.227 37.8695C120.548 38.1664 120.705 38.6529 120.705 39.3126ZM118.12 40.7474C117.585 40.7968 117.321 41.0854 117.321 41.6132C117.321 42.1492 117.56 42.413 118.029 42.413C118.416 42.413 118.82 42.3553 119.256 42.2316L119.462 42.1656V40.6237L118.12 40.7474Z" fill="white"/>
<path d="M122.927 43.32V37.5314H124.178V38.224C124.837 37.8035 125.487 37.5231 126.146 37.3994V38.6693C125.487 38.8012 124.919 38.9662 124.45 39.1805L124.195 39.2877V43.3282H122.927V43.32Z" fill="white"/>
<path d="M128.995 43.3205H127.736V37.5319H128.987V37.8947C129.53 37.5732 130.032 37.4082 130.485 37.4082C131.152 37.4082 131.646 37.5979 131.951 37.9772C132.65 37.5979 133.35 37.4082 134.042 37.4082C134.733 37.4082 135.227 37.6226 135.507 38.0514C135.795 38.4802 135.935 39.2058 135.935 40.2201V43.3205H134.684V40.2531C134.684 39.6264 134.618 39.1811 134.494 38.9255C134.371 38.6616 134.099 38.5297 133.704 38.5297C133.358 38.5297 132.98 38.6039 132.584 38.7606L132.387 38.843C132.445 38.9997 132.477 39.4944 132.477 40.3273V43.3288H131.226V40.352C131.226 39.6676 131.16 39.1893 131.045 38.9255C130.922 38.6616 130.65 38.5297 130.238 38.5297C129.851 38.5297 129.497 38.6039 129.16 38.7606L128.987 38.8265V43.3205H128.995Z" fill="white"/>
<path d="M138.05 36.5493V35.2217H139.31V36.5493H138.05ZM138.05 43.3191V37.5305H139.31V43.3191H138.05Z" fill="white"/>
<path d="M142.734 43.3205H141.475V37.5319H142.726V37.8947C143.286 37.5732 143.821 37.4082 144.323 37.4082C145.097 37.4082 145.616 37.6226 145.904 38.0597C146.184 38.4967 146.324 39.2141 146.324 40.2201V43.3205H145.072V40.2531C145.072 39.6264 145.007 39.1811 144.867 38.9255C144.735 38.6616 144.455 38.5297 144.043 38.5297C143.648 38.5297 143.27 38.6039 142.907 38.7606L142.734 38.8265V43.3205Z" fill="white"/>
<path d="M153.47 44.1039C153.47 45.3655 152.556 46.0004 150.729 46.0004C149.848 46.0004 149.198 45.8767 148.778 45.6376C148.358 45.3985 148.144 44.9615 148.144 44.3265C148.144 44.0379 148.21 43.7988 148.35 43.5926C148.49 43.3865 148.712 43.1639 149.016 42.9247C148.761 42.7516 148.638 42.4712 148.638 42.0836C148.638 41.927 148.745 41.6796 148.951 41.3333L149.058 41.1601C148.506 40.8303 148.226 40.2531 148.226 39.4202C148.226 38.7276 148.432 38.2163 148.852 37.8947C149.272 37.5732 149.831 37.4082 150.539 37.4082C150.877 37.4082 151.215 37.4495 151.544 37.5237L151.717 37.5567L153.511 37.5072V38.5297L152.548 38.472C152.754 38.7441 152.861 39.0574 152.861 39.4202C152.861 40.1789 152.672 40.6983 152.293 40.9869C151.914 41.2756 151.313 41.424 150.507 41.424C150.309 41.424 150.136 41.4075 149.996 41.3745C149.889 41.6384 149.831 41.8363 149.831 41.9847C149.831 42.1249 149.906 42.2238 150.046 42.2815C150.185 42.3393 150.531 42.364 151.083 42.3723C151.997 42.3805 152.631 42.5042 152.968 42.7433C153.297 42.9907 153.47 43.4442 153.47 44.1039ZM149.379 44.2276C149.379 44.4997 149.486 44.6893 149.7 44.8048C149.914 44.9202 150.284 44.9779 150.811 44.9779C151.741 44.9779 152.211 44.7141 152.211 44.1781C152.211 43.8812 152.128 43.6833 151.964 43.6091C151.799 43.5267 151.47 43.4854 150.976 43.4772L149.84 43.4112C149.667 43.5514 149.552 43.6833 149.477 43.7988C149.412 43.906 149.379 44.0544 149.379 44.2276ZM149.724 40.2118C149.897 40.3768 150.169 40.4592 150.548 40.4592C150.926 40.4592 151.198 40.3768 151.363 40.2118C151.527 40.0469 151.61 39.783 151.61 39.4285C151.61 39.0739 151.527 38.81 151.355 38.6451C151.182 38.4802 150.91 38.3977 150.531 38.3977C149.823 38.3977 149.469 38.7441 149.469 39.4285C149.469 39.783 149.552 40.0469 149.724 40.2118Z" fill="white"/>
</g>
<defs>
<clipPath id="clip0_6_2778">
<rect width="165" height="46" fill="white" transform="translate(0.510986)"/>
</clipPath>
</defs>
</svg>
