<svg width="164" height="37" viewBox="0 0 164 37" fill="none" xmlns="http://www.w3.org/2000/svg">
<g clip-path="url(#clip0_14_1472)">
<path d="M64.1607 11.8457C65.1668 12.4533 66.0182 13.2888 66.5598 14.428C67.179 15.5673 67.4885 16.9344 67.4885 18.4533C67.4885 19.9723 67.179 21.2635 66.4824 22.4027C65.8633 23.5419 64.9345 24.3774 63.7736 24.909C62.6128 25.5166 61.2196 25.8205 59.7492 25.8205C58.8978 25.8205 58.1237 25.6685 57.3499 25.3648C56.5758 25.137 55.8793 24.6811 55.3375 24.1496V32.0483H50.8486V11.2381H54.7183L55.1054 12.909C56.808 11.542 58.6655 10.8584 60.6004 10.8584C61.9161 10.8584 63.1544 11.1622 64.1607 11.8457ZM61.684 21.2635C62.4579 20.58 62.8448 19.6685 62.8448 18.5293C62.8448 17.3901 62.4579 16.4787 61.7614 15.7192C61.0648 14.9597 60.1361 14.6559 59.13 14.6559C58.2786 14.6559 57.5046 14.8078 56.8854 15.1875C56.2662 15.4913 55.8019 16.023 55.415 16.7066V20.1242C55.6471 20.8078 56.1115 21.3394 56.6533 21.7192C57.2725 22.0989 57.969 22.3267 58.8204 22.3267C59.9812 22.3267 60.91 21.947 61.684 21.2635Z" fill="white"/>
<path d="M70.1198 14.5023C70.8164 13.439 71.745 12.5276 72.9833 11.92C74.2217 11.3124 75.6149 10.9326 77.1628 10.9326C78.7107 10.9326 80.1037 11.2364 81.342 11.92C82.503 12.5276 83.4318 13.439 84.1283 14.5782C84.8248 15.7174 85.1344 16.9327 85.1344 18.3757C85.1344 19.8187 84.8248 21.0339 84.1283 22.1731C83.4318 23.3123 82.5804 24.2237 81.342 24.8314C80.1811 25.4389 78.7107 25.8187 77.1628 25.8187C75.6149 25.8187 74.2217 25.5149 72.9833 24.9074C71.745 24.2997 70.8164 23.4643 70.1198 22.325C69.5006 21.1858 69.1136 19.8946 69.1136 18.3757C69.1136 16.9327 69.5006 15.6415 70.1198 14.5023ZM74.6861 21.1098C75.3053 21.8693 76.1567 22.1731 77.1628 22.1731C78.1689 22.1731 79.0203 21.7935 79.6394 21.1098C80.2586 20.4263 80.5682 19.4389 80.5682 18.3757C80.5682 17.2365 80.2586 16.325 79.6394 15.6415C78.9427 14.882 78.1689 14.5023 77.0854 14.5023C76.0792 14.5023 75.3053 14.882 74.6088 15.5655C73.9896 16.325 73.68 17.2365 73.68 18.3757C73.68 19.4389 73.9896 20.3504 74.6861 21.1098Z" fill="white"/>
<path d="M92.4103 0.452637V25.44H87.9214V0.452637H92.4103Z" fill="white"/>
<path d="M110.83 11.6167L101.697 32.123H97.3632L100.768 24.756L94.2674 11.6167H99.3754L103.09 19.8192L106.805 11.6167H110.83Z" fill="white"/>
<path d="M128.011 11.6162V25.4389C128.011 26.7301 127.624 27.9453 126.85 29.0087C126.076 30.0719 125.07 30.9074 123.754 31.5149C122.438 32.1226 121.045 32.4263 119.497 32.4263C118.336 32.4263 117.33 32.2744 116.479 32.0466C115.627 31.7427 114.931 31.4389 114.389 31.1352C113.77 30.7554 113.151 30.2997 112.454 29.6922L115.086 26.6541C115.705 27.2618 116.401 27.7175 117.021 28.0213C117.64 28.325 118.491 28.5528 119.42 28.5528C120.581 28.5528 121.51 28.2491 122.284 27.7175C123.057 27.1858 123.444 26.3504 123.444 25.3631V23.3883C122.98 24.0719 122.361 24.6795 121.432 25.1352C120.503 25.5909 119.42 25.8187 118.182 25.8187C116.943 25.8187 115.705 25.5149 114.621 24.8314C113.538 24.2237 112.687 23.3123 111.99 22.1731C111.371 21.0339 110.984 19.8187 110.984 18.4517C110.984 17.0845 111.293 15.7934 111.99 14.6541C112.687 13.5149 113.538 12.6035 114.699 11.92C115.782 11.2364 116.943 10.9326 118.182 10.9326C119.342 10.9326 120.349 11.0845 121.277 11.3883C122.206 11.6921 122.903 12.1478 123.367 12.6795L123.831 11.6162H128.011ZM123.444 20.1226V16.7048C123.135 16.0212 122.67 15.4896 121.974 15.1098C121.277 14.7301 120.503 14.5023 119.575 14.5023C118.491 14.5023 117.562 14.882 116.788 15.5655C116.015 16.2491 115.627 17.1605 115.627 18.2997C115.627 19.3631 116.015 20.3504 116.788 21.1098C117.562 21.8693 118.491 22.2491 119.575 22.2491C121.355 22.1731 122.67 21.4896 123.444 20.1226Z" fill="white"/>
<path d="M131.727 14.504C132.424 13.3647 133.352 12.5293 134.591 11.8457C135.829 11.2381 137.222 10.8584 138.77 10.8584C140.318 10.8584 141.711 11.1622 142.949 11.8457C144.11 12.4533 145.039 13.3647 145.736 14.504C146.355 15.6432 146.742 16.8584 146.742 18.3014C146.742 19.7445 146.432 20.9597 145.736 22.0989C145.116 23.2381 144.188 24.1496 142.949 24.7571C141.788 25.3648 140.318 25.7445 138.77 25.7445C137.222 25.7445 135.829 25.4406 134.591 24.8331C133.352 24.2254 132.424 23.3901 131.727 22.2509C131.03 21.1115 130.721 19.8205 130.721 18.2254C130.721 16.9344 131.03 15.6432 131.727 14.504ZM136.216 21.1115C136.835 21.871 137.686 22.1749 138.693 22.1749C139.699 22.1749 140.55 21.795 141.169 21.1115C141.788 20.428 142.098 19.4406 142.098 18.3774C142.098 17.2381 141.788 16.3268 141.169 15.6432C140.55 14.9597 139.699 14.5799 138.693 14.5799C137.686 14.5799 136.913 14.9597 136.216 15.6432C135.519 16.3268 135.21 17.3141 135.21 18.3774C135.287 19.4406 135.597 20.352 136.216 21.1115Z" fill="white"/>
<path d="M162.608 12.0719C163.537 12.8314 163.923 13.8187 164 15.0339V25.4389H159.434V16.7048C159.357 15.3377 158.66 14.6541 157.345 14.6541C156.339 14.6541 155.487 15.1098 154.868 16.0972C154.249 17.0845 153.939 18.2997 153.939 19.7427V25.4389H149.45V11.6162H153.552L153.862 13.8187C154.404 12.9073 155.1 12.2238 156.029 11.6921C156.958 11.1605 158.041 10.9326 159.28 10.9326C160.595 10.9326 161.756 11.3124 162.608 12.0719Z" fill="white"/>
<path d="M31.6546 11.3902C30.8805 10.9345 29.8744 10.9345 29.0232 11.3902L22.9863 14.8839L18.8843 17.1624L12.8476 20.656C12.0736 21.1117 11.0675 21.1117 10.2161 20.656L5.41765 17.9218C4.6437 17.4661 4.10194 16.6307 4.10194 15.7193V10.3269C4.10194 9.41552 4.56631 8.58008 5.41765 8.12439L10.1387 5.46616C10.9127 5.01047 11.9188 5.01047 12.7702 5.46616L17.4913 8.12439C18.2652 8.58008 18.807 9.41552 18.807 10.3269V13.8206L22.9089 11.4662V7.9725C22.9089 7.06109 22.4446 6.22565 21.5932 5.76995L12.8476 0.7573C12.0736 0.301603 11.0675 0.301603 10.2161 0.7573L1.31572 5.76995C0.46437 6.22565 0 7.06109 0 7.9725V18.0738C0 18.9851 0.46437 19.8207 1.31572 20.2763L10.2161 25.289C10.9901 25.7447 11.9962 25.7447 12.8476 25.289L18.8843 21.8712L22.9863 19.5168L29.0232 16.0991C29.7971 15.6434 30.8032 15.6434 31.6546 16.0991L36.3756 18.7573C37.1495 19.213 37.6913 20.0485 37.6913 20.9599V26.3522C37.6913 27.2637 37.227 28.0991 36.3756 28.5547L31.6546 31.289C30.8805 31.7447 29.8744 31.7447 29.0232 31.289L24.3021 28.6307C23.5281 28.1751 22.9863 27.3395 22.9863 26.4282V22.9346L18.8843 25.289V28.7826C18.8843 29.6939 19.3488 30.5295 20.2 30.9851L29.1006 35.9978C29.8744 36.4535 30.8805 36.4535 31.7319 35.9978L40.6324 30.9851C41.4063 30.5295 41.9481 29.6939 41.9481 28.7826V18.6813C41.9481 17.7699 41.4837 16.9346 40.6324 16.4789L31.6546 11.3902Z" fill="#8247E5"/>
</g>
<defs>
<clipPath id="clip0_14_1472">
<rect width="164" height="36" fill="white" transform="translate(0 0.378418)"/>
</clipPath>
</defs>
</svg>
