<svg width="9" height="13" viewBox="0 0 9 13" fill="none" xmlns="http://www.w3.org/2000/svg">
<path d="M2.82628 8.14719C2.82628 7.6606 2.9265 7.23318 3.12695 6.86495C3.32739 6.48356 3.59465 6.17451 3.92873 5.93779C4.16926 5.76682 4.47661 5.56955 4.85078 5.34598C5.58575 4.89884 5.95323 4.40567 5.95323 3.86646V2.9393C5.95323 2.57107 5.82628 2.32119 5.57238 2.18968C5.31849 2.05817 4.79065 1.99241 3.98886 1.99241C3.37416 1.99241 2.04454 2.15023 0 2.46586V0.31563C1.65702 0.10521 3.11359 0 4.36971 0C5.05122 0 5.59911 0.019727 6.01336 0.059181C6.44098 0.0854831 6.84855 0.151239 7.23608 0.256449C7.63697 0.374811 7.95768 0.532626 8.19822 0.729894C8.43875 0.914011 8.63252 1.17046 8.77951 1.49924C8.9265 1.85432 9 2.24886 9 2.68285V4.57663C9 4.94487 8.88641 5.29337 8.65924 5.62215C8.44543 5.93778 8.15813 6.21396 7.79733 6.45068C7.34298 6.74001 7.00223 6.95043 6.77506 7.08194C5.95991 7.58169 5.55234 8.02226 5.55234 8.40364V9.29135H2.82628V8.14719ZM2.62583 10.2777H5.75278V13H2.62583V10.2777Z" fill="#00F0FF"/>
</svg>
