<svg width="70" height="70" viewBox="0 0 70 70" fill="none" xmlns="http://www.w3.org/2000/svg">
<path fill-rule="evenodd" clip-rule="evenodd" d="M48 65.6C52.6678 65.6 57.1444 63.7457 60.4451 60.4451C63.7457 57.1444 65.6 52.6678 65.6 48C65.6 43.3322 63.7457 38.8556 60.4451 35.5549C57.1444 32.2543 52.6678 30.4 48 30.4C43.3322 30.4 38.8556 32.2543 35.5549 35.5549C32.2543 38.8556 30.4 43.3322 30.4 48C30.4 52.6678 32.2543 57.1444 35.5549 60.4451C38.8556 63.7457 43.3322 65.6 48 65.6ZM70 48C70 53.8348 67.6822 59.4305 63.5564 63.5564C59.4305 67.6822 53.8348 70 48 70C42.1652 70 36.5695 67.6822 32.4437 63.5564C28.3179 59.4305 26 53.8348 26 48C26 42.1652 28.3179 36.5695 32.4437 32.4437C36.5695 28.3179 42.1652 26 48 26C53.8348 26 59.4305 28.3179 63.5564 32.4437C67.6822 36.5695 70 42.1652 70 48Z" fill="#F8C665"/>
<path d="M41.0045 52.1536C41.215 54.776 43.3251 56.8176 47.1107 57.064V59H48.7907V57.0508C52.7107 56.7824 55 54.7232 55 51.74C55 49.0208 53.2528 47.6216 50.1168 46.9L48.7907 46.592V41.312C50.4752 41.5012 51.5414 42.4032 51.7968 43.6528H54.7446C54.5341 41.1228 52.3254 39.1472 48.7907 38.9316V37H47.1107V38.98C43.7642 39.3012 41.4883 41.2768 41.4883 44.0752C41.4883 46.548 43.1818 48.1232 45.9997 48.7656L47.1107 49.034V54.6308C45.3904 54.3756 44.248 53.4428 43.9926 52.1536H41H41.0045ZM47.0973 46.196C45.4442 45.822 44.5482 45.052 44.5482 43.8992C44.5482 42.6056 45.5158 41.6376 47.1107 41.356V46.196H47.0973ZM49.0326 49.4784C51.0442 49.936 51.967 50.6752 51.967 51.982C51.967 53.4736 50.8157 54.4944 48.7907 54.6836V49.4256L49.0326 49.4784Z" fill="#F8C665"/>
<path d="M4.375 0C3.21468 0 2.10188 0.46357 1.28141 1.28873C0.460936 2.11389 0 3.23305 0 4.4L0 39.6C0 40.767 0.460936 41.8861 1.28141 42.7113C2.10188 43.5364 3.21468 44 4.375 44H22.2381C22.4919 42.4864 22.8725 41.0168 23.3669 39.6H13.125C13.125 37.2661 12.2031 35.0278 10.5622 33.3775C8.92124 31.7271 6.69564 30.8 4.375 30.8V13.2C6.69564 13.2 8.92124 12.2729 10.5622 10.6225C12.2031 8.97222 13.125 6.73391 13.125 4.4H56.875C56.875 6.73391 57.7969 8.97222 59.4378 10.6225C61.0788 12.2729 63.3044 13.2 65.625 13.2V28.7232C67.2875 30.2192 68.7619 31.9264 70 33.8008V4.4C70 3.23305 69.5391 2.11389 68.7186 1.28873C67.8981 0.46357 66.7853 0 65.625 0L4.375 0Z" fill="#F8C665"/>
<path d="M43.991 22.1287L44 21.7648C43.9991 20.2545 43.5979 18.7701 42.8355 17.4553C42.073 16.1405 40.975 15.0398 39.6478 14.2599C38.3206 13.48 36.8092 13.0473 35.26 13.0037C33.7108 12.96 32.1763 13.307 30.8051 14.0109C29.4339 14.7148 28.2725 15.7518 27.4334 17.0215C26.5942 18.2912 26.1058 19.7506 26.0153 21.2582C25.9249 22.7659 26.2355 24.2707 26.9172 25.6271C27.5988 26.9834 28.6283 28.1452 29.906 29C33.7929 25.3923 38.6979 22.9995 43.991 22.1287Z" fill="#F8C665"/>
</svg>
