<svg width="70" height="70" viewBox="0 0 70 70" fill="none" xmlns="http://www.w3.org/2000/svg">
<g clip-path="url(#clip0_3_3758)">
<path d="M38.7652 65.8364L44.2476 62.0741C51.2566 57.2596 56.6818 50.5432 59.858 42.7481C63.0342 34.953 63.8236 26.4179 62.1292 18.1892C62.0455 17.7837 61.8679 17.4025 61.61 17.0752C61.3521 16.7478 61.021 16.4831 60.6421 16.3016L34.9998 4L9.36079 16.3016C8.98132 16.4828 8.64947 16.7473 8.39101 17.0746C8.13254 17.402 7.95439 17.7834 7.87038 18.1892C6.17637 26.4182 6.9662 34.9535 10.143 42.7486C13.3199 50.5438 18.7457 57.26 25.7553 62.0741L31.2377 65.8364C32.341 66.5938 33.6549 67 35.0014 67C36.348 67 37.6619 66.5938 38.7652 65.8364V65.8364Z" stroke="#F8C665" stroke-width="7" stroke-linecap="round" stroke-linejoin="round"/>
</g>
<defs>
<clipPath id="clip0_3_3758">
<rect width="70" height="70" fill="white"/>
</clipPath>
</defs>
</svg>
