<svg width="71" height="74" viewBox="0 0 71 74" fill="none" xmlns="http://www.w3.org/2000/svg">
<path d="M43.9812 28.5193L32.1424 40.6192L28.0336 36.4198C27.3389 35.7098 26.2157 35.7098 25.521 36.4198C24.8263 37.1297 24.8263 38.2778 25.521 38.9878L30.8861 44.4713C31.2261 44.8187 31.6695 45 32.1424 45C32.6154 45 33.0588 44.8036 33.3987 44.4713L46.479 31.1024C47.1737 30.3924 47.1737 29.2444 46.479 28.5344C45.7991 27.8244 44.6758 27.8244 43.9812 28.5193Z" fill="#F8C665"/>
<path d="M6.83853 50.2082C6.40594 49.1945 5.22462 48.7292 4.20968 49.1613C3.19475 49.5933 2.72887 50.7732 3.16147 51.7869C3.49423 52.5347 4.22632 53 4.99168 53C5.25789 53 5.52411 52.9501 5.79032 52.8338C6.80525 52.3851 7.27113 51.2219 6.83853 50.2082Z" fill="white"/>
<path d="M4.96001 43.5969C4.74343 42.5122 3.67718 41.8113 2.59427 42.0449C1.51136 42.2786 0.811629 43.3132 1.04487 44.398C1.24479 45.3492 2.0778 46 2.99411 46C3.12739 46 3.26067 45.9833 3.39395 45.9499C4.49352 45.733 5.17659 44.665 4.96001 43.5969Z" fill="white"/>
<path d="M17.9916 9C18.3592 9 18.7268 8.89966 19.061 8.69899C19.9967 8.1137 20.2807 6.87624 19.6959 5.93977C19.1111 5.00331 17.8747 4.71903 16.939 5.30432C16.0033 5.88961 15.7193 7.12707 16.3041 8.06354C16.6717 8.66555 17.3233 9 17.9916 9Z" fill="white"/>
<path d="M13 14C13.4988 14 13.981 13.8169 14.38 13.4507C15.1781 12.6849 15.2114 11.4197 14.4466 10.6207C13.6817 9.82164 12.4181 9.78835 11.62 10.5541C10.8219 11.3199 10.7886 12.585 11.5534 13.3841C11.9359 13.7836 12.4679 14 13 14Z" fill="white"/>
<path d="M2 39C3.1 39 4 38.1184 4 37.0408C4 37.0245 4 37.0245 4 37.0082C4 36.9918 4 36.9755 4 36.9592C4 35.8816 3.1 35 2 35C0.9 35 0 35.8816 0 36.9592C0 36.9755 0 36.9918 0 37.0082C0 37.0245 0 37.0408 0 37.0571C0 38.1347 0.9 39 2 39Z" fill="white"/>
<path d="M11.5498 61.6226C10.7874 62.4212 10.8206 63.6857 11.6327 64.451C12.0139 64.817 12.5111 65 13.0083 65C13.5386 65 14.069 64.7837 14.4502 64.3678C15.2126 63.5692 15.1794 62.3048 14.3673 61.5395C13.5718 60.7908 12.3122 60.8241 11.5498 61.6226Z" fill="white"/>
<path d="M2.61175 31.9501C2.74502 31.9834 2.87829 32 3.01156 32C3.94447 32 4.77743 31.351 4.96068 30.4024C5.17725 29.3207 4.47757 28.2723 3.39472 28.0393C2.31188 27.8229 1.26236 28.5219 1.02913 29.6036C0.84588 30.6687 1.54556 31.7171 2.61175 31.9501Z" fill="white"/>
<path d="M66.0927 27.5978C66.3603 28.4491 67.1463 29 67.9993 29C68.2 29 68.4007 28.9666 68.6014 28.8998C69.655 28.566 70.2404 27.4476 69.9059 26.396C69.5714 25.3443 68.4508 24.7601 67.3972 25.094C66.3603 25.4278 65.7582 26.5462 66.0927 27.5978Z" fill="white"/>
<path d="M37.9001 4C37.9334 4 37.9667 4 38 4C39.0655 4 39.948 3.1671 39.9979 2.101C40.0479 1.00157 39.1987 0.0520702 38.0999 0.00209638C37.001 -0.0478774 36.0687 0.801677 36.0021 1.9011C35.9521 3.00052 36.8013 3.93337 37.9001 4Z" fill="white"/>
<path d="M43.4999 4.93333C43.6666 4.98333 43.8333 5 44 5C44.8834 5 45.7002 4.39997 45.9336 3.49992C46.2169 2.43319 45.5668 1.33313 44.5001 1.06644C43.4333 0.783095 42.3331 1.43313 42.0664 2.49986C41.7831 3.56659 42.4332 4.66665 43.4999 4.93333Z" fill="white"/>
<path d="M68.7995 32.0085C67.6965 32.1254 66.8944 33.094 67.0113 34.1963C67.1116 35.2318 67.9806 36 69 36C69.0668 36 69.1337 36 69.2005 35.9833C70.3035 35.8664 71.1056 34.881 70.9887 33.7788C70.8884 32.7099 69.9024 31.9083 68.7995 32.0085Z" fill="white"/>
<path d="M19.0573 65.3024C18.1225 64.7194 16.8873 65.0026 16.303 65.952C15.7188 66.8847 16.0026 68.1172 16.9541 68.7002C17.2879 68.9001 17.6551 69 18.0057 69C18.6734 69 19.3244 68.6669 19.7083 68.0506C20.2759 67.1179 19.9921 65.8853 19.0573 65.3024Z" fill="white"/>
<path d="M31.0166 4C31.1163 4 31.216 4 31.3156 3.98329C32.3954 3.81622 33.143 2.79707 32.9769 1.69438C32.8108 0.591698 31.7974 -0.143426 30.701 0.0236476C29.6045 0.190721 28.857 1.20987 29.0231 2.31256C29.2058 3.29829 30.0531 4 31.0166 4Z" fill="white"/>
<path d="M4.2245 24.8338C4.47424 24.9501 4.74062 25 5.00701 25C5.77288 25 6.52209 24.5513 6.83843 23.7869C7.27131 22.7732 6.80513 21.61 5.78953 21.1613C4.77392 20.7292 3.59183 21.1945 3.15895 22.2082C2.72607 23.2385 3.2089 24.4018 4.2245 24.8338Z" fill="white"/>
<path d="M6.84459 18.6496C7.19385 18.8832 7.59301 19 7.99216 19C8.62416 19 9.23952 18.6997 9.63868 18.149C10.2707 17.248 10.0545 15.9966 9.13973 15.3625C8.24164 14.7284 6.99428 14.9454 6.36228 15.8631C5.73029 16.7641 5.9465 18.0155 6.84459 18.6496Z" fill="white"/>
<path d="M6.84637 55.3634C5.94638 55.9973 5.72972 57.2484 6.36305 58.1492C6.74638 58.6997 7.3797 59 7.99636 59C8.39636 59 8.79636 58.8832 9.14635 58.633C10.0463 57.9991 10.2797 56.748 9.62968 55.8471C8.99635 54.9463 7.74637 54.7295 6.84637 55.3634Z" fill="white"/>
<path d="M65.0083 22C65.3412 22 65.6742 21.9165 65.9738 21.7496C66.9393 21.2155 67.2888 19.9971 66.7395 19.029C66.2068 18.0609 64.9917 17.7104 64.0262 18.2612C63.0607 18.7953 62.7112 20.0138 63.2605 20.9818C63.6267 21.6161 64.3092 22 65.0083 22Z" fill="white"/>
<path d="M62.3028 58.4795C61.4677 57.762 60.1983 57.8622 59.48 58.6964C58.7618 59.5306 58.862 60.7987 59.6972 61.5161C60.0813 61.8332 60.5323 62 61 62C61.5679 62 62.1358 61.7664 62.52 61.2992C63.2382 60.465 63.138 59.1969 62.3028 58.4795Z" fill="white"/>
<path d="M61 16C61.4677 16 61.9354 15.8332 62.3028 15.5161C63.138 14.7987 63.2382 13.5306 62.52 12.6964C61.8017 11.8622 60.5323 11.762 59.6972 12.4795C58.862 13.1969 58.7618 14.465 59.48 15.2992C59.8809 15.7664 60.4488 16 61 16Z" fill="white"/>
<path d="M69.1914 39.0084C68.0929 38.9086 67.1109 39.7069 67.0111 40.8046C66.8946 41.9023 67.7101 42.8836 68.8086 42.9834C68.8752 42.9834 68.9417 43 69.0083 43C70.0236 43 70.8891 42.2349 70.9889 41.2038C71.1054 40.0895 70.2899 39.1082 69.1914 39.0084Z" fill="white"/>
<path d="M23.9917 6C24.2251 6 24.4585 5.96673 24.6919 5.86692C25.7256 5.48432 26.2591 4.33652 25.8756 3.30517C25.4922 2.27381 24.3418 1.7415 23.3081 2.1241C22.2744 2.5067 21.7409 3.6545 22.1244 4.68585C22.4078 5.50096 23.1747 6 23.9917 6Z" fill="white"/>
<path d="M65.967 52.2494C65 51.716 63.783 52.0661 63.2495 53.0329C62.716 53.9997 63.0661 55.2165 64.033 55.75C64.3331 55.9167 64.6666 56 65 56C65.7002 56 66.3837 55.6333 66.7505 54.9665C67.284 53.9997 66.9339 52.7829 65.967 52.2494Z" fill="white"/>
<path d="M68.5857 46.0938C67.5383 45.76 66.4245 46.3442 66.092 47.4126C65.7595 48.4642 66.358 49.5827 67.4053 49.9165C67.6048 49.9833 67.8043 50 68.0038 50C68.8516 50 69.6496 49.4491 69.9156 48.5978C70.2315 47.5294 69.633 46.411 68.5857 46.0938Z" fill="white"/>
<path d="M55.7701 63.4171C54.9059 64.1036 54.7397 65.3592 55.4211 66.2298C55.82 66.7489 56.4017 67 57 67C57.4321 67 57.8642 66.8661 58.2299 66.5814C59.0941 65.895 59.2603 64.6393 58.5789 63.7687C57.8808 62.8981 56.6344 62.7474 55.7701 63.4171Z" fill="white"/>
<path d="M37.9001 70.0021C36.8013 70.0687 35.9521 71.0016 36.0021 72.101C36.052 73.1671 36.9345 74 38 74C38.0333 74 38.0666 74 38.0999 74C39.1987 73.95 40.0479 73.0005 39.9979 71.9011C39.948 70.8017 38.999 69.9521 37.9001 70.0021Z" fill="white"/>
<path d="M31.2922 70.0232C30.2077 69.8561 29.1733 70.6081 29.0232 71.7109C28.8564 72.7969 29.6071 73.8329 30.7082 73.9833C30.8083 74 30.9084 74 31.0085 74C31.9762 74 32.8437 73.2815 32.9772 72.2957C33.144 71.2096 32.3766 70.1903 31.2922 70.0232Z" fill="white"/>
<path d="M24.6919 68.1246C23.6582 67.7404 22.5078 68.275 22.1244 69.3106C21.7409 70.3463 22.2744 71.4989 23.3081 71.8831C23.5415 71.9666 23.7749 72 23.9917 72C24.8086 72 25.5755 71.4989 25.8756 70.6804C26.2591 69.6614 25.7256 68.5088 24.6919 68.1246Z" fill="white"/>
<path d="M43.4999 69.061C42.4332 69.3447 41.7831 70.4296 42.0664 71.4978C42.2998 72.3991 43.1166 73 44 73C44.1667 73 44.3334 72.9833 44.5001 72.9332C45.5668 72.6495 46.2169 71.5646 45.9336 70.4964C45.6669 69.4282 44.5834 68.7939 43.4999 69.061Z" fill="white"/>
<path d="M50.1187 67.2043C49.121 67.6871 48.7219 68.8857 49.2041 69.8846C49.5533 70.5838 50.2517 71 51 71C51.2993 71 51.5986 70.9334 51.8813 70.8002C52.879 70.3174 53.2781 69.1188 52.7959 68.12C52.297 67.1211 51.0998 66.7216 50.1187 67.2043Z" fill="white"/>
<path d="M50.1166 7.80023C50.3995 7.93341 50.699 8 50.9985 8C51.7307 8 52.4463 7.58381 52.7957 6.88461C53.2783 5.88575 52.879 4.70377 51.8805 4.20434C50.8821 3.72156 49.7006 4.1211 49.2014 5.11996C48.7188 6.10217 49.1348 7.3008 50.1166 7.80023Z" fill="white"/>
<path d="M54.7734 10.5839C55.1405 10.8669 55.5744 11 55.9917 11C56.5925 11 57.1766 10.7337 57.5771 10.2178C58.2614 9.35233 58.0945 8.08744 57.2266 7.42172C56.3588 6.73934 55.0904 6.90578 54.4229 7.77122C53.7386 8.65331 53.9055 9.90155 54.7734 10.5839Z" fill="white"/>
</svg>
