<svg width="36" height="36" viewBox="0 0 36 36" fill="none" xmlns="http://www.w3.org/2000/svg">
<path d="M29.7646 17.0168C27.9935 15.1394 25.632 13.8549 23.1722 13.3609C22.0898 13.0645 21.0075 12.8668 19.9252 12.768C22.6802 9.50734 22.1882 4.56691 18.9412 1.80026C15.6942 -0.966385 10.7745 -0.472341 8.01943 2.78835C5.26439 6.04904 5.75636 10.9895 9.00338 13.7561C9.59375 14.2502 10.1841 14.6454 10.7745 14.843V17.0168L9.20017 15.5347C7.82265 14.1514 5.55957 14.1514 4.08366 15.5347C2.70613 16.918 2.60774 19.0918 3.98526 20.4751L8.51141 25.8108C8.7082 27.1941 9.20017 28.4786 9.88893 29.6643C10.3809 30.5536 11.0697 31.4429 11.7584 32.1345V34.0119C11.7584 34.6048 12.152 35 12.7424 35H26.124C26.616 35 27.108 34.506 27.108 34.0119V31.4429C28.9775 29.1703 29.9614 26.3048 29.9614 23.4394V17.7085C30.0598 17.3132 29.9614 17.1156 29.7646 17.0168ZM8.11783 7.72879C8.11783 4.4681 10.7745 1.89907 14.0215 1.99788C17.2685 1.99788 19.8268 4.66571 19.7284 7.9264C19.7284 9.70496 18.9412 11.2859 17.5637 12.3728V7.43236C17.5135 6.57605 17.1389 5.77148 16.5169 5.18359C15.8949 4.59569 15.0725 4.26899 14.2183 4.27048C12.4472 4.17167 10.8729 5.6538 10.8729 7.43236V12.5704C9.20017 11.5823 8.21622 9.70496 8.11783 7.72879ZM28.0919 23.3406C28.1903 25.9096 27.3047 28.3798 25.632 30.356C25.4353 30.5536 25.2385 30.7512 25.2385 31.0477V33.1226H13.8247V31.7393C13.8247 31.4429 13.6279 31.1465 13.4311 30.9488C12.7424 30.356 12.152 29.6643 11.66 28.7751C11.0697 27.787 10.6761 26.6013 10.4793 25.4156C10.4793 25.2179 10.3809 25.0203 10.2825 24.8227L5.55957 19.1906C5.26439 18.8942 5.0676 18.4989 5.0676 18.0049C5.0676 17.6097 5.26439 17.1156 5.55957 16.8192C6.24833 16.2263 7.23228 16.2263 7.92104 16.8192L10.7745 19.6846V22.6489L12.644 21.6608V7.43236C12.7424 6.7407 13.3327 6.14785 14.1199 6.24665C14.8087 6.24665 15.4974 6.7407 15.4974 7.43236V18.7954L17.4653 19.1906V14.6454C17.5637 14.5466 17.6621 14.5466 17.7605 14.4478C18.4492 14.4478 19.138 14.5466 19.8268 14.6454V19.6846L21.4011 19.9811V14.843L22.5818 15.1394C23.0738 15.2383 23.5658 15.4359 24.0577 15.6335V20.5739L25.632 20.8703V16.3251C26.5176 16.7204 27.3047 17.3132 27.9935 18.0049L28.0919 23.3406Z" fill="#F8C665"/>
</svg>
