<svg width="18" height="19" viewBox="0 0 18 19" fill="none" xmlns="http://www.w3.org/2000/svg">
<path d="M1.88337 2.87172C0.71153 4.41965 0.534828 6.48776 1.42211 8.2219C1.75523 8.87872 1.44364 8.54879 6.2377 13.3057C10.1558 17.1965 10.648 17.6777 10.9005 17.8455C11.9771 18.5773 13.4115 18.6914 14.5707 18.1351C15.1654 17.85 15.6652 17.4166 16.0125 16.8868C16.7891 15.712 16.8406 14.3332 16.158 13.0525L15.9901 12.7337L12.1748 8.94468C9.44133 6.23074 8.30409 5.11711 8.16257 5.02082C7.89618 4.83926 7.36742 4.66565 7.02475 4.64332C6.66273 4.61821 6.16348 4.72481 5.82211 4.89475C5.60739 5.00439 5.49471 5.08942 5.26423 5.3199C5.03375 5.55038 4.94887 5.66291 4.83982 5.87704C4.67085 6.21746 4.56646 6.71451 4.59374 7.07437C4.61523 7.39576 4.79282 7.92607 4.96303 8.18169C5.04119 8.30263 6.0785 9.34475 8.28361 11.5253C11.3535 14.5609 11.4953 14.6956 11.6531 14.7535C11.8581 14.8306 12.0954 14.8034 12.3045 14.6773C12.5934 14.5045 12.7263 14.1449 12.6219 13.8124L12.5626 13.6283L9.44546 10.5459C7.27928 8.40388 6.30314 7.42226 6.24723 7.32332C6.07116 7.01825 6.11567 6.65297 6.36261 6.40603C6.61778 6.15085 6.98489 6.11004 7.30104 6.29715C7.41197 6.36319 8.48803 7.41633 11.1048 10.0148L14.7532 13.6388L14.8654 13.8917C14.9298 14.0318 15.003 14.2297 15.0313 14.3341C15.1447 14.7682 15.0798 15.3806 14.8781 15.7869C14.7254 16.0889 14.2261 16.5883 13.9232 16.7418C13.3479 17.0296 12.5633 17.0178 11.9618 16.7068L11.7068 16.5746L7.4106 12.3264L3.1144 8.07811L2.92724 7.76753C2.26804 6.67912 2.229 5.39085 2.81263 4.27629C2.96536 3.9853 3.01742 3.92218 3.43174 3.50786C3.84605 3.09353 3.90923 3.04141 4.201 2.8879C5.31026 2.30402 6.59766 2.33285 7.69854 2.96851L7.99526 3.14187L12.0493 7.11795L16.0979 11.094L16.2914 11.1162C16.5291 11.1439 16.813 11.0536 16.9584 10.9082C17.1806 10.6804 17.2388 10.2959 17.0823 10.0211C17.0319 9.92765 15.7972 8.6958 12.9554 5.89661C9.16824 2.17351 8.88186 1.89578 8.64056 1.74995C6.84049 0.652095 4.75234 0.666368 3.04452 1.78798C2.7255 1.9964 2.1051 2.57256 1.88337 2.87172Z" fill="#F8C665"/>
</svg>
