<svg width="66" height="73" viewBox="0 0 66 73" fill="none" xmlns="http://www.w3.org/2000/svg">
<path d="M65.5629 32.0812V36.3539V50.0318C65.5629 54.2424 63.8719 56.0596 61.6083 57.3715L49.1808 64.4808L38.6144 70.5087C36.2523 71.9802 34.2661 73.0173 32.1546 72.9996C29.1663 72.9552 26.4821 71.2001 26.4821 67.4681C26.4821 63.3639 26.4821 59.9245 26.4821 55.8202L12.6142 47.9043V30.5122L32.7809 42.036V42.426V63.621C32.7809 64.8886 33.7472 66.0853 36.8607 64.3035L46.0225 59.0646L56.0611 53.3205C59.5326 51.3526 59.2642 50.5016 59.2642 46.5835V36.3539V35.6891L65.5629 32.0812Z" fill="#C3C3C3"/>
<path d="M12.6678 10.3724L16.4077 8.23606L28.352 1.40156C32.0292 -0.690455 34.4807 -0.149723 36.7354 1.13562L49.1628 8.23606L59.7293 14.2905C62.1987 15.5758 64.1044 16.7548 65.1423 18.5809C66.5828 21.1693 66.3949 24.3605 63.1381 26.2309C59.5593 28.2786 56.5531 29.9983 52.9564 32.0549L52.9743 47.8868L37.7643 56.5917L37.7464 33.5264L38.1043 33.3402L56.6336 22.7206C57.7431 22.1001 58.3067 20.6729 55.1932 18.8911L46.0224 13.6434L36.0017 7.89921C32.5303 5.91357 31.9219 6.56954 28.513 8.51972L19.566 13.6434L18.9844 13.9714L12.6678 10.3724Z" fill="#252525"/>
<path d="M20.1297 66.6088L16.4077 64.4725L4.44549 57.638C0.786138 55.5459 0.0345848 53.1614 0.0345848 50.573V36.3544V24.2899C-0.0727799 21.5153 0.0166908 19.2726 1.08139 17.4908C2.61134 14.9379 5.51913 13.5284 8.75797 15.3811C12.3547 17.4288 15.3698 19.1751 18.9397 21.2228L32.7898 13.2891L47.9729 21.9762L27.8331 33.5178L27.5021 33.3316L8.94586 22.7208C7.85432 22.1003 6.33332 22.3042 6.33332 25.8677V36.3544V47.8339C6.33332 51.7963 7.19223 52.0002 10.619 53.9503L19.575 59.0651L20.1386 59.3931V66.6088H20.1297Z" fill="#F8C665"/>
</svg>
