<svg width="26" height="26" viewBox="0 0 26 26" fill="none" xmlns="http://www.w3.org/2000/svg">
<circle cx="13" cy="13" r="13" fill="#F8C665"/>
<path d="M11.4156 8.18056L8.8784 5.25199C8.5859 4.91451 8.04966 4.91601 7.70991 5.25649L5.62342 7.34661C5.00242 7.96833 4.82468 8.89152 5.18392 9.63173C7.33013 14.0752 10.9139 17.6638 15.3546 19.8161C16.0941 20.1753 17.0166 19.9976 17.6376 19.3759L19.7436 17.2663C20.0848 16.925 20.0856 16.3858 19.7451 16.0933L16.8051 13.5697C16.4976 13.3058 16.0199 13.3403 15.7116 13.6492L14.6886 14.6737C14.6362 14.7286 14.5673 14.7647 14.4924 14.7767C14.4175 14.7886 14.3407 14.7756 14.2739 14.7397C12.6017 13.7768 11.2146 12.388 10.2539 10.7147C10.2179 10.6477 10.2049 10.5708 10.2168 10.4958C10.2287 10.4207 10.2649 10.3517 10.3199 10.2992L11.3399 9.2785C11.6489 8.96802 11.6826 8.48805 11.4156 8.17981V8.18056Z" fill="white"/>
</svg>
