<svg width="60" height="60" viewBox="0 0 60 60" fill="none" xmlns="http://www.w3.org/2000/svg">
<path d="M40.5027 5.9463C41.2135 6.65576 41.6129 7.61787 41.6129 8.62104C41.6129 9.62422 41.2135 10.5863 40.5027 11.2958L21.7332 30.0228L40.5027 48.7497C41.1934 49.4633 41.5756 50.4189 41.567 51.4109C41.5583 52.4028 41.1595 53.3517 40.4565 54.0531C39.7535 54.7546 38.8024 55.1524 37.8082 55.1611C36.814 55.1697 35.8562 54.7884 35.1411 54.0992L13.6908 32.6975C12.98 31.988 12.5806 31.0259 12.5806 30.0228C12.5806 29.0196 12.98 28.0575 13.6908 27.348L35.1411 5.9463C35.8521 5.23706 36.8164 4.83862 37.8219 4.83862C38.8273 4.83862 39.7916 5.23706 40.5027 5.9463V5.9463Z" fill="#F8C665"/>
</svg>
