<svg width="75" height="74" viewBox="0 0 75 74" fill="none" xmlns="http://www.w3.org/2000/svg">
<path d="M55.8312 33H46.1688C45.5232 33 45 33.5222 45 34.1667V38.8333C45 39.4778 45.5232 40 46.1688 40H55.8312C56.4768 40 57 39.4778 57 38.8333V34.1667C57 33.5222 56.4768 33 55.8312 33ZM54.6623 37.6667H47.3377V35.3333H54.6623V37.6667Z" fill="#252525"/>
<path d="M26.8197 56H17.1803C16.5285 56 16 56.5093 16 57.1379V65.8621C16 66.4907 16.5285 67 17.1803 67H26.8197C27.4715 67 28 66.4907 28 65.8621V57.1379C28 56.5093 27.4715 56 26.8197 56ZM25.6393 64.7241H18.3607V58.2759H25.6393V64.7241Z" fill="#252525"/>
<path d="M41.8197 56H32.1803C31.5285 56 31 56.5093 31 57.1379V65.8621C31 66.4907 31.5285 67 32.1803 67H41.8197C42.4717 67 43 66.4907 43 65.8621V57.1379C43 56.5093 42.4717 56 41.8197 56ZM40.6393 64.7241H33.3607V58.2759H40.6393V64.7241Z" fill="#252525"/>
<path d="M26.8197 43H17.1803C16.5285 43 16 43.5093 16 44.1379V52.8621C16 53.4907 16.5285 54 17.1803 54H26.8197C27.4715 54 28 53.4907 28 52.8621V44.1379C28 43.5093 27.4715 43 26.8197 43ZM25.6393 51.7241H18.3607V45.2759H25.6393V51.7241Z" fill="#252525"/>
<path d="M41.8197 43H32.1803C31.5285 43 31 43.5093 31 44.1379V52.8621C31 53.4907 31.5285 54 32.1803 54H41.8197C42.4717 54 43 53.4907 43 52.8621V44.1379C43 43.5093 42.4717 43 41.8197 43ZM40.6393 51.7241H33.3607V45.2759H40.6393V51.7241Z" fill="#252525"/>
<path d="M55.8312 43H46.1688C45.5232 43 45 43.5245 45 44.1719V66.8281C45 67.4755 45.5232 68 46.1688 68H55.8312C56.4768 68 57 67.4755 57 66.8281V59.0156C57 58.3683 56.4768 57.8438 55.8312 57.8438C55.1855 57.8438 54.6623 58.3683 54.6623 59.0156V65.6562H47.3377V45.3438H54.6623V54.3281C54.6623 54.9755 55.1855 55.5 55.8312 55.5C56.4768 55.5 57 54.9755 57 54.3281V44.1719C57 43.5245 56.4768 43 55.8312 43Z" fill="#252525"/>
<path d="M58.0353 0H15.9647C12.6757 0 10 2.64857 10 5.90425V68.0957C10 71.3514 12.6757 74 15.9647 74H58.0353C61.3243 74 64 71.3514 64 68.0957V5.90425C64 2.64857 61.3243 0 58.0353 0ZM61.6141 68.0957C61.6141 70.049 60.0086 71.6383 58.0353 71.6383H15.9647C13.9912 71.6383 12.3859 70.049 12.3859 68.0957V5.90425C12.3859 3.95097 13.9912 2.3617 15.9647 2.3617H58.0353C60.0086 2.3617 61.6141 3.95097 61.6141 5.90425V68.0957Z" fill="#252525"/>
<path d="M55.8116 6H17.1884C16.5321 6 16 6.54351 16 7.21429V21.7857C16 22.4565 16.5321 23 17.1884 23H55.8116C56.4681 23 57 22.4565 57 21.7857V7.21429C57 6.54351 56.4681 6 55.8116 6ZM18.3768 8.42857H33.3338L21.4497 20.5714H18.3768V8.42857ZM54.6232 20.5714H34.3184L37.7394 17.0759C38.2035 16.6015 38.2035 15.8328 37.7394 15.3586C37.2752 14.8845 36.5227 14.8847 36.0587 15.3586L30.957 20.5714H24.8112L36.6952 8.42857H42.8409L39.4198 11.9241C38.9557 12.3985 38.9557 13.1672 39.4198 13.6414C39.652 13.8784 39.9562 13.997 40.2603 13.997C40.5643 13.997 40.8686 13.8784 41.1007 13.6414L46.2025 8.42857H54.6232V20.5714Z" fill="#252525"/>
<path d="M56.7964 27H32.2036C31.5389 27 31 27.4476 31 28C31 28.5524 31.5389 29 32.2036 29H56.7964C57.4613 29 58 28.5524 58 28C58 27.4476 57.4613 27 56.7964 27Z" fill="#252525"/>
<path d="M26.8079 27H17.1921C16.5337 27 16 27.4476 16 28C16 28.5524 16.5337 29 17.1921 29H26.8079C27.4663 29 28 28.5524 28 28C28 27.4476 27.4663 27 26.8079 27Z" fill="#252525"/>
</svg>
