<svg width="75" height="74" viewBox="0 0 75 74" fill="none" xmlns="http://www.w3.org/2000/svg">
<path d="M60.8123 35.1328C60.1565 35.1328 59.6249 35.6614 59.6249 36.3137V56.6808H45.7707C45.1149 56.6808 44.5832 57.2094 44.5832 57.8617V71.6383H7.37499V2.3617H59.7577C59.9554 2.74052 60.3535 2.99936 60.8123 2.99936C61.4682 2.99936 61.9998 2.47081 61.9998 1.81851V1.18085C61.9998 0.528549 61.4682 0 60.8123 0H6.1875C5.53168 0 5 0.528549 5 1.18085V72.8191C5 73.4715 5.53168 74 6.1875 74H45.7707C45.8105 74 45.85 73.9979 45.8893 73.994C45.9188 73.991 45.9476 73.9861 45.9762 73.9811C45.9856 73.9795 45.9951 73.9787 46.0044 73.977C46.0383 73.9702 46.0714 73.9614 46.1042 73.9521C46.1083 73.9509 46.1127 73.9501 46.1168 73.9488C46.1498 73.9389 46.1818 73.9271 46.2133 73.9145C46.2175 73.9128 46.2218 73.9115 46.2261 73.9099C46.256 73.8975 46.2848 73.8835 46.3135 73.8688C46.3193 73.8657 46.3255 73.8633 46.3312 73.8602C46.3573 73.8463 46.3824 73.8307 46.4072 73.815C46.4151 73.8101 46.4234 73.8057 46.4311 73.8005C46.4542 73.7851 46.4763 73.7682 46.4981 73.7512C46.5068 73.7445 46.516 73.7385 46.5245 73.7316C46.5513 73.7097 46.5768 73.6864 46.6015 73.6624C46.6043 73.6594 46.6077 73.6572 46.6105 73.6542L61.6521 58.6968C61.6545 58.6944 61.6564 58.6919 61.6588 58.6896C61.6837 58.6644 61.7076 58.6385 61.7302 58.6111C61.7364 58.6037 61.7414 58.5957 61.7475 58.5883C61.7655 58.5653 61.7834 58.5423 61.7997 58.5181C61.8041 58.5116 61.8076 58.5047 61.8119 58.4981C61.8287 58.4723 61.845 58.446 61.8596 58.4187C61.8623 58.414 61.8642 58.4088 61.8667 58.4039C61.8819 58.3745 61.8965 58.3449 61.9093 58.3144C61.9107 58.3109 61.9117 58.3073 61.9131 58.304C61.9261 58.2718 61.9383 58.2393 61.9484 58.2059C61.9496 58.2019 61.9503 58.1977 61.9515 58.1938C61.9612 58.161 61.9699 58.1279 61.9767 58.0942C61.9786 58.0846 61.9794 58.075 61.9812 58.0654C61.9861 58.0369 61.9911 58.0088 61.994 57.9796C61.9979 57.9406 62 57.9012 62 57.8617V36.3137C61.9998 35.6614 61.4682 35.1328 60.8123 35.1328ZM57.9456 59.0425L46.9582 69.9684V59.0425H57.9456Z" fill="#252525"/>
<path d="M75 15.4233C75 13.8316 74.3836 12.3387 73.2645 11.2193L68.7805 6.73531C68.3609 6.31583 67.8886 5.96674 67.3783 5.69454C66.5278 5.24081 65.5717 5 64.5769 5C63.5667 5 62.5968 5.24906 61.7366 5.71641C61.2413 5.98561 60.782 6.32661 60.373 6.73547L54.7679 12.3404C54.7677 12.3406 50.5902 16.5183 50.5902 16.5183L18.1953 48.9131C18.1929 48.9155 18.1909 48.9182 18.1885 48.9205C18.1788 48.9305 18.1699 48.9412 18.1606 48.9513C18.0664 49.054 17.9897 49.172 17.9366 49.3012L13.3603 60.4149C13.3583 60.42 13.356 60.4249 13.3541 60.4301L10.0896 68.3584C9.90681 68.8023 10.0089 69.3124 10.3483 69.6519C10.3767 69.6804 10.4064 69.707 10.4371 69.7321C10.6519 69.9076 10.9186 70 11.1894 70C11.3417 70 11.4955 69.9707 11.6418 69.9106L19.5733 66.6446C19.576 66.6435 19.5787 66.6424 19.5814 66.6413L30.6989 62.0636C30.8279 62.0104 30.9457 61.934 31.0485 61.8398C31.0589 61.8303 31.0695 61.8214 31.0795 61.8116C31.0819 61.8092 31.0844 61.8073 31.0868 61.8049L63.4812 29.4106C63.4823 29.4093 73.2644 19.6273 73.2644 19.6273C74.3836 18.5079 75 17.015 75 15.4233ZM19.4098 64.14L15.8599 60.5901L19.6972 51.2708C20.1553 51.508 20.5814 51.8176 20.9565 52.1925C22.08 53.3162 22.6006 54.8419 22.3489 56.2738C22.2818 56.6557 22.405 57.0464 22.6791 57.3206C22.9532 57.5946 23.3435 57.7181 23.7258 57.6508C25.158 57.3994 26.6835 57.9197 27.8071 59.0432C28.1822 59.4183 28.4919 59.8445 28.7291 60.3025L19.4098 64.14ZM50.5903 29.4098C50.8224 29.6419 51.1268 29.7579 51.431 29.7579C51.7353 29.7579 52.0396 29.6419 52.2717 29.4098L57.036 24.6454L60.9594 28.5689L30.6562 58.8723C30.3363 58.3265 29.9446 57.8178 29.4886 57.3618C28.5565 56.4297 27.4258 55.7805 26.2276 55.454L47.7879 33.8939C48.2523 33.4294 48.2523 32.6767 47.7879 32.2123C47.3236 31.7482 46.5707 31.7482 46.1065 32.2123L24.5459 53.7725C24.2193 52.5741 23.5701 51.4436 22.6379 50.5113C22.182 50.0555 21.6734 49.6637 21.1275 49.344L51.4309 19.0407L55.3543 22.9641L50.59 27.7284C50.126 28.1926 50.126 28.9453 50.5903 29.4098ZM53.1126 17.3588L55.6086 14.8629L65.1371 24.3914L62.641 26.8873L53.1126 17.3588ZM14.8791 62.9724L17.0277 65.121L13.3751 66.625L14.8791 62.9724ZM72.6049 15.7787C72.5251 16.6002 72.1692 17.3593 71.5831 17.9454L66.8188 22.7098L57.2903 13.1813L62.0547 8.41688C62.1402 8.33143 62.2291 8.25153 62.3206 8.17654C62.3602 8.14404 62.4027 8.11598 62.4436 8.08539C62.4969 8.04559 62.5492 8.00406 62.6041 7.9676C62.663 7.92844 62.7249 7.89435 62.7859 7.85884C62.8247 7.83617 62.8625 7.81128 62.9019 7.7902C62.9883 7.74454 63.0773 7.7038 63.1672 7.66543C63.1821 7.65909 63.1963 7.65116 63.2112 7.64498C63.6377 7.4698 64.0998 7.37769 64.577 7.37769C65.0545 7.37769 65.5166 7.46964 65.9434 7.64514C65.955 7.64989 65.9661 7.65608 65.9775 7.66115C66.0709 7.70062 66.163 7.74311 66.2526 7.79051C66.289 7.80985 66.3239 7.83316 66.3599 7.85377C66.4239 7.89071 66.4885 7.92669 66.5503 7.96775C66.6028 8.00263 66.6527 8.04242 66.7036 8.08031C66.7469 8.1125 66.7916 8.1423 66.8336 8.17654C66.9251 8.25153 67.014 8.33127 67.0993 8.41672L71.5833 12.9007C72.1695 13.487 72.5253 14.246 72.605 15.0675C72.6164 15.1849 72.6221 15.3034 72.6221 15.423C72.6221 15.5425 72.6163 15.6614 72.6049 15.7787Z" fill="#252525"/>
</svg>
