<svg width="75" height="74" viewBox="0 0 75 74" fill="none" xmlns="http://www.w3.org/2000/svg">
<path d="M65.7554 40.946H63.3349V31.2749C63.3349 28.2388 60.8576 25.7688 57.8127 25.7688H56.3789L58.747 22.7294C59.1686 22.1882 59.0704 21.4085 58.5276 20.9881L51.4774 15.5272L47.6055 3.95374C47.5011 3.64151 47.2764 3.38339 46.9812 3.2363C46.6856 3.08903 46.3438 3.06504 46.0308 3.16928L38.6804 5.61482L34.3508 2.26106C33.808 1.84046 33.0264 1.93857 32.6044 2.4798L14.4585 25.7688H11.2446C10.5572 25.7688 10 26.3244 10 27.0098V71.759C10 72.4444 10.5572 73 11.2446 73H57.8127C60.8576 73 63.3349 70.53 63.3349 67.4939V57.8223H65.7554C66.4428 57.8223 67 57.2667 67 56.5813V42.1868C67 41.5016 66.4428 40.946 65.7554 40.946ZM53.2269 25.7688H53.132C52.2468 24.7004 51.7634 23.3693 51.7634 21.9681C51.7634 21.0476 51.9684 20.1623 52.3628 19.3558L56.0177 22.1867L53.2269 25.7688ZM45.6382 5.91645L47.9356 12.7836L41.0435 7.445L45.6382 5.91645ZM33.8065 4.98242L37.4585 7.81116C36.3858 8.71872 35.0281 9.22421 33.5873 9.22421C32.6642 9.22421 31.776 9.01987 30.9672 8.62656L33.8065 4.98242ZM29.4176 10.6154C30.6828 11.331 32.1028 11.7061 33.5873 11.7061C35.8052 11.7061 37.8833 10.8606 39.4539 9.35675L50.3682 17.8107C49.6506 19.0722 49.2744 20.4881 49.2744 21.9681C49.2744 23.3084 49.5882 24.6029 50.1773 25.7688H17.6106L29.4176 10.6154ZM60.8457 67.4939C60.8457 69.1614 59.4851 70.5181 57.8127 70.5181H12.4892V28.2507H57.8127C59.4851 28.2507 60.8457 29.6073 60.8457 31.2749V40.946H49.0786C48.3912 40.946 47.834 41.5016 47.834 42.1869V56.5815C47.834 57.2669 48.3912 57.8225 49.0786 57.8225H60.8457V67.4939V67.4939ZM64.5108 55.3404H50.3232V43.4277H64.5108V55.3404Z" fill="#252525"/>
<path d="M57.5001 53C59.4299 53 61 51.4299 61 49.5001C61 47.5702 59.4299 46 57.5001 46C55.5702 46 54 47.5701 54 49.5001C54 51.4299 55.5701 53 57.5001 53ZM57.5001 48.3334C58.1433 48.3334 58.6666 48.8567 58.6666 49.5001C58.6666 50.1433 58.1433 50.6666 57.5001 50.6666C56.8568 50.6666 56.3334 50.1433 56.3334 49.5001C56.3334 48.8568 56.8567 48.3334 57.5001 48.3334Z" fill="#252525"/>
</svg>
