<svg width="75" height="74" viewBox="0 0 75 74" fill="none" xmlns="http://www.w3.org/2000/svg">
<path d="M59 38C58.4667 38 57.95 38.2167 57.5833 38.5833C57.2167 38.95 57 39.4667 57 40C57 40.5333 57.2167 41.05 57.5833 41.4167C57.95 41.7833 58.4667 42 59 42C59.5333 42 60.05 41.7833 60.4167 41.4167C60.7833 41.05 61 40.5333 61 40C61 39.4667 60.7833 38.95 60.4167 38.5833C60.0333 38.2 59.5167 38 59 38Z" fill="#252525"/>
<path d="M41.0448 15.5807C40.8119 16.6652 41.5107 17.7164 42.5923 17.9499C42.7254 17.9833 42.8752 18 43.0083 18C43.9402 18 44.7555 17.3493 44.9552 16.415C45.1881 15.3304 44.4893 14.2793 43.4077 14.0457C42.3261 13.8121 41.2778 14.4962 41.0448 15.5807Z" fill="#252525"/>
<path d="M54.8763 23.339C53.9607 23.9547 53.7276 25.2028 54.3436 26.118C54.7265 26.6838 55.3591 27 56.0083 27C56.3912 27 56.7741 26.8835 57.1237 26.6505C58.0393 26.0348 58.2724 24.7868 57.6564 23.8715C57.0238 22.9729 55.7919 22.7233 54.8763 23.339Z" fill="#252525"/>
<path d="M48.3436 17.8818C47.7276 18.7989 47.9607 20.0495 48.8763 20.6665C49.2259 20.9 49.6088 21 49.9917 21C50.6409 21 51.2569 20.6999 51.6564 20.1162C52.2724 19.1991 52.0393 17.9485 51.1237 17.3315C50.2081 16.7312 48.9595 16.9647 48.3436 17.8818Z" fill="#252525"/>
<path d="M57.0448 32.4212C57.2445 33.3685 58.0765 34 58.9917 34C59.1248 34 59.2579 33.9834 59.4077 33.9501C60.4893 33.7175 61.1881 32.6705 60.9552 31.5903C60.7222 30.5101 59.6739 29.8121 58.5923 30.0448C57.5107 30.294 56.8119 31.341 57.0448 32.4212Z" fill="#252525"/>
<path d="M35 14C34.4667 14 33.95 14.2167 33.5833 14.5833C33.2167 14.95 33 15.4667 33 16C33 16.5333 33.2167 17.05 33.5833 17.4167C33.95 17.7833 34.4667 18 35 18C35.5333 18 36.05 17.7833 36.4167 17.4167C36.7833 17.05 37 16.5333 37 16C37 15.4667 36.7833 14.95 36.4167 14.5833C36.05 14.2167 35.5333 14 35 14Z" fill="#252525"/>
<path d="M73 38C72.4667 38 71.95 38.2167 71.5833 38.5833C71.2167 38.95 71 39.4667 71 40C71 40.5333 71.2167 41.05 71.5833 41.4167C71.95 41.7833 72.4667 42 73 42C73.5333 42 74.05 41.7833 74.4167 41.4167C74.7833 41.05 75 40.5333 75 40C75 39.4667 74.7833 38.95 74.4167 38.5833C74.0333 38.2 73.5167 38 73 38Z" fill="#252525"/>
<path d="M71.7849 19.1082C71.2854 18.122 70.0864 17.7208 69.104 18.2056C68.1215 18.707 67.7219 19.9106 68.2048 20.8968C68.5545 21.5988 69.2538 22 69.9865 22C70.2863 22 70.586 21.9331 70.8857 21.7827C71.8848 21.2979 72.2845 20.0944 71.7849 19.1082Z" fill="#252525"/>
<path d="M54.1061 6.78326C54.389 6.93331 54.7052 7 55.0047 7C55.7368 7 56.4357 6.59986 56.7851 5.89961C57.2843 4.91593 56.8849 3.71551 55.8866 3.21533C54.9048 2.71516 53.7068 3.1153 53.2076 4.11565C52.7251 5.08266 53.1078 6.28308 54.1061 6.78326Z" fill="#252525"/>
<path d="M41.9334 4C41.9667 4 41.9833 4 42 4C43.0662 4 43.9657 3.15044 43.9991 2.06766C44.0324 0.968228 43.1828 0.0353747 42.0666 0.00205847C40.9671 -0.0479158 40.0342 0.818305 40.0009 1.91774C39.9676 3.01717 40.8339 3.95003 41.9334 4Z" fill="#252525"/>
<path d="M48.5083 4.93324C48.6748 4.98331 48.8413 5 49.0078 5C49.9069 5 50.7061 4.39912 50.9392 3.4978C51.2057 2.42957 50.5729 1.32796 49.4907 1.0609C48.4251 0.793842 47.3262 1.4281 47.0598 2.51303C46.7934 3.56457 47.4427 4.64949 48.5083 4.93324Z" fill="#252525"/>
<path d="M67.5643 12.7458C66.8635 11.8825 65.612 11.7497 64.7443 12.447C63.8933 13.1443 63.7431 14.3895 64.444 15.2529C64.8444 15.7344 65.4118 16 65.9958 16C66.4464 16 66.8802 15.8506 67.2473 15.5517C68.115 14.8544 68.2485 13.6092 67.5643 12.7458Z" fill="#252525"/>
<path d="M71.0021 33.0671C71.0354 34.1502 71.9347 35 73.0006 35C73.0172 35 73.0505 35 73.0672 35C74.1664 34.9667 75.0324 34.0336 74.9991 32.9338C74.9658 31.8341 74.0331 30.9676 72.9339 31.0009C71.8181 31.0343 70.9521 31.9507 71.0021 33.0671Z" fill="#252525"/>
<path d="M71.9917 28C72.1582 28 72.3248 27.9834 72.4913 27.9335C73.5572 27.6675 74.2067 26.5702 73.9402 25.5061C73.6738 24.4421 72.5746 23.7937 71.5087 24.0597C70.4428 24.3257 69.7933 25.423 70.0598 26.487C70.2763 27.4015 71.0923 28 71.9917 28Z" fill="#252525"/>
<path d="M59.7517 10.5517C60.1183 10.8506 60.5683 11 61.0015 11C61.5848 11 62.1681 10.751 62.5514 10.2529C63.2513 9.38952 63.1179 8.14431 62.2514 7.44699C61.3848 6.74967 60.135 6.88249 59.4351 7.74584C58.7518 8.60919 58.8851 9.8544 59.7517 10.5517Z" fill="#252525"/>
<path d="M35 4C35.5333 4 36.05 3.78333 36.4167 3.41667C36.7833 3.05 37 2.53333 37 2C37 1.46667 36.7833 0.95 36.4167 0.583333C36.05 0.216667 35.5333 0 35 0C34.4667 0 33.95 0.216667 33.5833 0.583333C33.2167 0.95 33 1.46667 33 2C33 2.53333 33.2167 3.05 33.5833 3.41667C33.95 3.8 34.4667 4 35 4Z" fill="#252525"/>
<path d="M53.8898 48.5978C52.4672 47.2133 50.7759 46.4667 49.0214 46.4667C47.2669 46.4667 45.5914 47.1978 44.1688 48.5822L43.7895 48.94C42.3985 50.2933 40.9759 51.6778 39.585 53.0933C39.3163 52.9533 39.0634 52.8289 38.7947 52.7044C38.1466 52.3933 37.546 52.0978 36.9927 51.7556C32.7724 49.1422 28.884 45.6578 25.1221 41.1156C23.3202 38.9378 22.0557 36.9933 21.1705 35.0489C22.4034 33.8822 23.6047 32.6689 24.7902 31.5022L25.707 30.6C28.6944 27.6444 28.6786 23.8333 25.6911 20.8622C24.7902 19.9756 23.8734 19.0733 22.9883 18.2022C22.5931 17.8133 22.1979 17.4244 21.8186 17.0511C21.4076 16.6467 20.9808 16.2267 20.5699 15.8222C19.6689 14.9356 18.7521 14.0178 17.8196 13.1156C16.397 11.7311 14.7057 11 12.9512 11C11.1967 11 9.52119 11.7311 8.09861 13.1156C7.41894 13.7689 6.75507 14.4378 6.0912 15.0911C5.14281 16.04 4.16281 17.02 3.16701 17.9378C1.30185 19.68 0.25863 21.8889 0.0531468 24.4867C-0.262982 28.5622 0.890887 32.2489 1.93411 35.0022C4.28927 41.2244 7.87732 47.12 12.9038 53.0156C19.1789 60.3578 26.7344 66.1756 35.3647 70.3133C40.1224 72.5844 44.2005 73.7511 48.1837 73.9689C48.484 73.9844 48.7685 74 49.053 74C52.4356 74 55.2175 72.8333 57.3198 70.5156C58.2207 69.5356 59.1691 68.6178 60.1965 67.6378C60.7024 67.14 61.2398 66.6422 61.7614 66.1289C64.733 63.1733 64.7488 59.3622 61.793 56.4378C59.1533 53.7467 56.482 51.1178 53.8898 48.5978ZM59.1059 63.4533C58.6159 63.9511 58.0943 64.4333 57.5885 64.9156C56.5769 65.8956 55.5179 66.8911 54.5379 67.98C53.0204 69.6444 51.1079 70.3444 48.4524 70.2044C44.9908 70.0178 41.3711 68.9756 37.0876 66.9222C28.9315 63.0178 21.8028 57.5267 15.8754 50.5889C11.1176 45.02 7.75087 39.4978 5.55378 33.68C4.21023 30.1178 3.70443 27.3644 3.8941 24.7511C4.02056 23.0556 4.63701 21.7489 5.83829 20.6289C6.86571 19.6644 7.86152 18.6689 8.84151 17.7044C9.48958 17.0667 10.1534 16.3978 10.8015 15.7756C11.2915 15.3089 12.066 14.7333 12.9986 14.7333C13.9312 14.7333 14.7057 15.2933 15.2115 15.7756C16.1283 16.6622 17.045 17.5644 17.9302 18.4511C18.357 18.8711 18.7679 19.2756 19.1947 19.6956C19.5899 20.0844 19.985 20.4733 20.3802 20.8467C21.2654 21.7178 22.1821 22.6044 23.0673 23.4911C24.5847 25 24.6005 26.4622 23.0831 27.9711L22.1663 28.8889C20.886 30.1644 19.5583 31.4711 18.2305 32.7311C17.5508 33.3844 16.8712 34.4889 17.5508 36.0756C18.5783 38.5178 20.0799 40.8667 22.2453 43.4956C26.276 48.3644 30.4647 52.1133 35.0485 54.9444C35.7598 55.38 36.4869 55.7378 37.1982 56.08C37.6092 56.2822 38.0043 56.4689 38.3837 56.6711C38.8737 56.9356 39.3637 57.06 39.8537 57.06C40.644 57.06 41.3711 56.7333 42.0034 56.08C43.4892 54.5711 45.0224 53.0778 46.524 51.6156L46.9034 51.2578C47.3934 50.7756 48.1679 50.2156 49.0846 50.2156C50.0014 50.2156 50.7917 50.7911 51.2817 51.2578C53.8582 53.7778 56.5295 56.3911 59.2007 59.0356C60.6075 60.4822 60.6075 61.9756 59.1059 63.4533Z" fill="#252525"/>
</svg>
