<svg width="75" height="74" viewBox="0 0 75 74" fill="none" xmlns="http://www.w3.org/2000/svg">
<path d="M39.6585 23.2308C39.0005 23.8972 39.0005 24.9772 39.6588 25.6435C40.3172 26.3098 41.3844 26.3096 42.0423 25.6431L43.434 24.2341C43.9346 23.7272 44.0689 22.9579 43.7701 22.3081C42.8414 20.2883 42.3705 18.1988 42.3705 16.0973C42.3705 11.8191 44.2105 7.78964 47.314 5.00563L47.3194 16.1725C47.3196 16.7319 47.5909 17.2558 48.0453 17.5743L56.0419 23.1788C56.6188 23.5831 57.3832 23.5834 57.9603 23.1791L65.9598 17.5775C66.4148 17.2589 66.6863 16.7346 66.6863 16.1744L66.6852 5.00819C69.7884 7.78964 71.6285 11.8159 71.6295 16.0905C71.6295 20.0465 70.1077 23.7658 67.3443 26.5633C64.5831 29.3587 60.9129 30.8976 57.0085 30.8976C57.0048 30.8976 57.0009 30.8976 56.9971 30.8976C55.6536 30.8966 53.0164 30.2383 52.1136 29.9846C51.5282 29.8198 50.9002 29.9872 50.4706 30.4218L45.3466 35.6083C44.6885 36.2744 44.6885 37.3546 45.3466 38.0209C45.6758 38.3539 46.1071 38.5205 46.5384 38.5205C46.9697 38.5205 47.4011 38.3539 47.7301 38.0209L52.1717 33.5252C53.41 33.8351 55.5385 34.3084 56.9944 34.3094C56.9994 34.3094 57.0036 34.3094 57.0085 34.3094C61.8128 34.3092 66.33 32.4152 69.7278 28.9754C73.1277 25.5336 75 20.9577 75 16.0902C74.9985 9.53374 71.4837 3.45395 65.8275 0.22317C65.3057 -0.0748486 64.6667 -0.0702427 64.1491 0.235623C63.6317 0.541489 63.3135 1.10239 63.3137 1.709L63.315 15.2805L57.0014 19.7015L50.6901 15.2776L50.6835 1.70508C50.6831 1.09863 50.3648 0.537907 49.8473 0.232382C49.3299 -0.0733133 48.691 -0.077578 48.1692 0.220611C42.5134 3.45429 39 9.53784 39 16.0971C39 18.3128 39.418 20.5076 40.2443 22.638L39.6585 23.2308Z" fill="#252525"/>
<path d="M35.0898 45.7465L11.4403 69.2417C10.5516 70.1251 9.37015 70.6119 8.11371 70.6127C8.11285 70.6127 8.11217 70.6127 8.11115 70.6127C6.85505 70.6126 5.67344 70.1262 4.7849 69.2434C3.89652 68.3599 3.40792 67.1847 3.40945 65.9339C3.41082 64.6869 3.90027 63.5163 4.78984 62.6354L25.1315 42.4253C25.7972 41.7639 25.7972 40.6917 25.1315 40.0302C24.4657 39.369 23.3862 39.3688 22.7205 40.0303L2.38111 60.2384C0.848149 61.7561 0.00256302 63.7774 5.80301e-06 65.93C-0.00255141 68.0862 0.840136 70.1131 2.37344 71.6381C3.90675 73.1613 5.94434 74 8.11115 74C8.11268 74 8.11422 74 8.11558 74C10.2826 73.9988 12.3198 73.1593 13.8518 71.6365L37.5007 48.1418C38.1664 47.4805 38.1664 46.408 37.5007 45.7465C36.8348 45.0853 35.7555 45.0853 35.0898 45.7465Z" fill="#252525"/>
<path d="M7.99855 63.863C7.46303 63.8633 6.96002 64.0754 6.5887 64.4538C5.8072 65.241 5.80329 66.5274 6.57992 67.3209C6.58187 67.3231 6.58382 67.3249 6.58577 67.327C6.97514 67.7207 7.48628 67.9178 7.99823 67.9178C8.51131 67.9178 9.02522 67.7197 9.41751 67.3229C10.1956 66.5304 10.1933 65.244 9.41572 64.4582C9.03773 64.0743 8.53505 63.863 7.99985 63.863C7.99953 63.863 7.99904 63.863 7.99855 63.863Z" fill="#252525"/>
<path d="M63.5853 54.9852C63.4086 54.8111 63.1954 54.6773 62.9606 54.5932L58.0687 52.8437L40.3979 35.4145L43.2541 32.5976C43.9202 31.9406 43.9204 30.8752 43.2541 30.218C42.7484 29.7197 42.0045 29.5992 41.3839 29.8573L14.656 3.49828C13.0395 1.89871 10.8867 1.01639 8.59418 1.0137C8.59077 1.0137 8.5877 1.0137 8.58429 1.0137C6.29177 1.0137 4.13691 1.89299 2.51548 3.49037C0.892001 5.09162 -0.00136314 7.21967 1.56121e-06 9.48266C0.00119567 11.7438 0.895243 13.8698 2.51701 15.4686L29.2453 41.8298C28.9836 42.4417 29.1054 43.1754 29.611 43.6741C30.2773 44.331 31.3575 44.3313 32.0235 43.6741L34.8789 40.8578L52.5499 58.2866L54.3238 63.1118C54.4089 63.3433 54.5445 63.5538 54.7213 63.7279L64.6365 73.5072C64.9696 73.8356 65.4062 74 65.8427 74C66.2792 74 66.7159 73.8356 67.0489 73.5072L73.5003 67.1441C73.8202 66.8284 74 66.4006 74 65.9544C74 65.5082 73.8202 65.0803 73.5003 64.7647L63.5853 54.9852ZM36.7789 34.2248C36.7753 34.2283 36.7716 34.2322 36.768 34.2357L31.5694 39.3632L4.92912 13.0888C3.95131 12.1249 3.41243 10.8436 3.41174 9.48098C3.41106 8.11746 3.94943 6.83505 4.92724 5.87063C5.90385 4.9084 7.20236 4.37891 8.58429 4.37891C8.58633 4.37891 8.58838 4.37891 8.59026 4.37891C9.97082 4.38042 11.2666 4.91143 12.2413 5.87584L38.8828 32.1499L36.79 34.214C36.7864 34.2175 36.7827 34.2211 36.7789 34.2248ZM65.8427 69.9381L57.402 61.613L55.6281 56.7878C55.543 56.5563 55.4074 56.3459 55.2306 56.1717L37.2915 38.4783L37.9855 37.7941L55.9244 55.4876C56.1011 55.6617 56.3144 55.7955 56.5491 55.8796L61.441 57.6291L69.8817 65.9542L65.8427 69.9381Z" fill="#252525"/>
<path d="M9.91807 7.58446C9.25055 6.93303 8.16816 6.93303 7.50064 7.58446C6.83312 8.23607 6.83312 9.29265 7.50064 9.94442L31.0819 32.9633C31.4156 33.289 31.8532 33.452 32.2906 33.452C32.7281 33.452 33.1657 33.289 33.4994 32.9633C34.1669 32.3117 34.1669 31.2551 33.4994 30.6033L9.91807 7.58446Z" fill="#252525"/>
</svg>
