<svg width="75" height="74" viewBox="0 0 75 74" fill="none" xmlns="http://www.w3.org/2000/svg">
<path d="M54 19.2603C57.8598 19.2603 61 16.0771 61 12.1644C61 8.25177 57.8598 5.06848 54 5.06848C50.1402 5.06848 47 8.25177 47 12.1644C47 16.0771 50.1402 19.2603 54 19.2603ZM54 6.41047C57.1299 6.41047 59.6763 8.99166 59.6763 12.1645C59.6763 15.3374 57.1299 17.9186 54 17.9186C50.8701 17.9186 48.3237 15.3372 48.3237 12.1645C48.3237 8.99166 50.8701 6.41047 54 6.41047Z" fill="#252525"/>
<path d="M58.5 46.6301C58.2239 46.6301 58 46.9195 58 47.2764V52.0661C58 52.4229 58.2239 52.7123 58.5 52.7123C58.7761 52.7123 59 52.4229 59 52.0661V47.2764C59 46.9195 58.7761 46.6301 58.5 46.6301Z" fill="#252525"/>
<path d="M69.6498 40.8211C69.7229 40.8211 69.5839 40.8428 69.6498 40.8211C70.203 41.1435 70.8227 41.289 71.4431 41.289C72.3877 41.289 73.3308 40.9173 74.0294 40.1811C75.3768 38.7612 75.3134 36.5136 73.8889 35.1714L71.6723 33.0777V2.22239C71.6723 0.997033 70.6717 0 69.4416 0H3.28731C2.05739 0 1.05664 0.997033 1.05664 2.22239V38.6168C1.05664 39.8422 2.05739 40.8392 3.28731 40.8392H44.319V42.5544H2.23067C1.00075 42.5544 0 43.5514 0 44.7768V46.3557C0 47.581 1.00075 48.5781 2.23067 48.5781H44.3192V69.694C44.3192 72.0683 46.2581 74 48.6414 74C51.0247 74 52.9634 72.0683 52.9634 69.694L52.9633 51.8186C53.4575 51.8643 53.907 51.8643 54.4009 51.8186L54.4011 69.6939C54.4011 72.0682 56.34 73.9998 58.7233 73.9998C61.1064 73.9998 63.0451 72.0682 63.0451 69.6939V48.5779H70.4982C71.7283 48.5779 72.7289 47.5809 72.7289 46.3555V44.7766C72.7289 43.5513 71.7283 42.5542 70.4982 42.5542H63.0451V40.839L69.6498 40.8211ZM63.0451 34.6967L68.1447 39.5137H63.0451V34.6967ZM73.0627 39.2704C72.2188 40.1594 70.8066 40.199 69.9155 39.3595L63.0451 32.8699V26.9667C63.0451 26.8971 63.0393 26.8283 63.0359 26.7594L72.9741 36.1341C73.8662 36.9746 73.9059 38.3816 73.0627 39.2704ZM2.38721 38.6168V36.8819H24.5678C24.9352 36.8819 25.2331 36.5852 25.2331 36.2191C25.2331 35.8531 24.9352 35.5563 24.5678 35.5563H2.38721V2.22239C2.38721 1.728 2.79108 1.32563 3.28731 1.32563H69.4416C69.938 1.32563 70.3417 1.728 70.3417 2.22239V4.21052H59.5523C59.1849 4.21052 58.887 4.50731 58.887 4.87334C58.887 5.23937 59.1849 5.53616 59.5523 5.53616H70.3417V31.821L61.0865 23.0807C61.0765 23.0712 61.0989 23.0911 61.0865 23.0807C61.0846 23.0791 61.0884 23.0822 61.0865 23.0807C59.0994 21.2413 55.9906 20.0625 53.6821 20.0625C51.2435 20.0625 47.9063 21.3843 45.9452 23.406C45.9286 23.4204 45.9605 23.3896 45.9452 23.406L38.7658 31.0538L33.4953 26.1526C32.0699 24.8099 29.8139 24.8731 28.4667 26.2932C27.8139 26.9812 27.4691 27.8814 27.4957 28.8275C27.5223 29.7739 27.9172 30.6533 28.6115 31.3069L36.5186 38.641C37.0076 39.097 37.5946 39.385 38.2084 39.5134H3.28731C2.79108 39.5136 2.38721 39.1113 2.38721 38.6168ZM44.319 27.0414V33.5842L40.5674 37.5741C39.727 38.4594 38.3186 38.5039 37.4265 37.672L29.5218 30.3402C29.0896 29.9333 28.8422 29.3828 28.8256 28.7904C28.809 28.1981 29.0248 27.6346 29.4335 27.2039C30.2768 26.3149 31.6889 26.2755 32.5843 27.1187L38.3438 32.4749C38.6124 32.7248 39.0332 32.7103 39.2838 32.4429L44.319 27.0414ZM39.6861 39.5136C40.371 39.3695 41.0206 39.0259 41.5364 38.4825L44.3192 35.5231V39.5134H39.6861V39.5136ZM2.23067 47.2526C1.73445 47.2526 1.33058 46.8502 1.33058 46.3559V44.7769C1.33058 44.2826 1.73445 43.8802 2.23067 43.8802H44.319V47.2526H2.23067ZM59.7417 72.4928V57.2724C59.7417 56.9063 59.4438 56.6096 59.0764 56.6096C58.709 56.6096 58.4111 56.9063 58.4111 57.2724V72.6581C56.9077 72.5022 55.7316 71.2325 55.7316 69.6943L55.7315 51.0605C55.7315 50.8644 55.6443 50.6784 55.4934 50.5525C55.3727 50.4516 55.2212 50.3976 55.0662 50.3976C55.0275 50.3976 54.9886 50.4011 54.9499 50.4078C54.5008 50.4873 54.0744 50.5275 53.6824 50.5275C53.2904 50.5275 52.8639 50.4872 52.4144 50.4076C52.2205 50.3731 52.0215 50.4263 51.8708 50.5522C51.7199 50.678 51.6327 50.8641 51.6327 51.0601L51.6328 69.6942C51.6328 71.2494 50.4305 72.5284 48.9036 72.6613V64.7307C48.9036 64.3647 48.6057 64.0679 48.2383 64.0679C47.8709 64.0679 47.573 64.3647 47.573 64.7307V72.4746C46.4502 72.0448 45.6498 70.9621 45.6498 69.6942L45.6496 26.9665C45.6496 23.9411 50.5834 21.3881 53.6821 21.3881C56.7808 21.3881 61.7146 23.9411 61.7146 26.9665L61.7147 69.6942C61.7147 70.9808 60.8905 72.0764 59.7417 72.4928ZM70.4982 43.8802C70.9946 43.8802 71.3983 44.2826 71.3983 44.7769V46.3559C71.3983 46.8502 70.9946 47.2526 70.4982 47.2526H63.0451V43.8802H70.4982Z" fill="#252525"/>
<path d="M9.67048 14.1918H39.3295C39.6998 14.1918 40 13.9648 40 13.6849C40 13.405 39.6998 13.1781 39.3295 13.1781H9.67048C9.30022 13.1781 9 13.405 9 13.6849C9 13.9648 9.30022 14.1918 9.67048 14.1918Z" fill="#252525"/>
<path d="M40 19.7671C40 19.4872 39.6998 19.2603 39.3295 19.2603H9.67048C9.30022 19.2603 9 19.4872 9 19.7671C9 20.047 9.30022 20.274 9.67048 20.274H39.3295C39.6998 20.274 40 20.047 40 19.7671Z" fill="#252525"/>
<path d="M22.3277 25.3425H9.67232C9.30104 25.3425 9 25.5694 9 25.8493C9 26.1292 9.30104 26.3562 9.67232 26.3562H22.3277C22.699 26.3562 23 26.1292 23 25.8493C23 25.5694 22.699 25.3425 22.3277 25.3425Z" fill="#252525"/>
</svg>
