<svg width="26" height="26" viewBox="0 0 26 26" fill="none" xmlns="http://www.w3.org/2000/svg">
<path d="M13 26C20.1797 26 26 20.1797 26 13C26 5.82032 20.1797 0 13 0C5.82032 0 0 5.82032 0 13C0 20.1797 5.82032 26 13 26Z" fill="#37AEE2"/>
<path d="M5.22655 13.5819C6.76109 12.7654 8.47405 12.0839 10.0746 11.399C12.8281 10.2771 15.5925 9.17469 18.3848 8.14835C18.9281 7.97347 19.9043 7.80245 20 8.58016C19.9476 9.681 19.732 10.7754 19.5841 11.8698C19.2087 14.2765 18.7749 16.6749 18.3518 19.0736C18.206 19.8726 17.1698 20.2863 16.5068 19.775C14.9134 18.7353 13.3077 17.7058 11.7347 16.642C11.2194 16.1363 11.6972 15.41 12.1574 15.0488C13.4698 13.7995 14.8616 12.7381 16.1054 11.4242C16.4409 10.6416 15.4496 11.3011 15.1226 11.5032C13.326 12.6992 11.5733 13.9681 9.67906 15.0192C8.71149 15.5337 7.58377 15.094 6.61664 14.8069C5.74948 14.4601 4.47886 14.1107 5.22655 13.5819Z" fill="white"/>
</svg>
