<svg width="26" height="26" viewBox="0 0 26 26" fill="none" xmlns="http://www.w3.org/2000/svg">
<path d="M13 26C20.1797 26 26 20.1797 26 13C26 5.8203 20.1797 0 13 0C5.8203 0 0 5.8203 0 13C0 20.1797 5.8203 26 13 26Z" fill="#25D366"/>
<path fill-rule="evenodd" clip-rule="evenodd" d="M13.6826 20.0158H13.6794C12.3795 20.0153 11.1021 19.6907 9.9676 19.0748L5.84999 20.1498L6.95193 16.1441C6.2722 14.9718 5.91453 13.6419 5.91511 12.2795C5.91682 8.01739 9.40127 4.5498 13.6826 4.5498C15.7604 4.5507 17.7107 5.35573 19.1771 6.8169C20.6436 8.278 21.4508 10.2202 21.45 12.2856C21.4483 16.5468 17.9652 20.014 13.6826 20.0158ZM10.1018 17.8034L10.3392 17.9442C11.3371 18.5362 12.4811 18.8495 13.6475 18.8499H13.6501C17.2327 18.8499 20.1486 15.935 20.15 12.3523C20.1507 10.6161 19.4752 8.98361 18.248 7.75542C17.0208 6.52723 15.3888 5.85052 13.6527 5.84992C10.0673 5.84992 7.15142 8.76451 7.15 12.347C7.14949 13.5748 7.49314 14.7704 8.1438 15.8049L8.29835 16.0508L7.64171 18.4485L10.1018 17.8034ZM17.2592 13.5905C17.3931 13.6544 17.4835 13.6975 17.5221 13.7611C17.57 13.8401 17.57 14.2195 17.4102 14.6622C17.2502 15.1048 16.4835 15.5088 16.1148 15.5632C15.7841 15.612 15.3657 15.6324 14.906 15.4881C14.6273 15.4008 14.2699 15.2842 13.812 15.089C12.0129 14.3219 10.797 12.6002 10.5672 12.2747C10.5512 12.2519 10.5399 12.236 10.5336 12.2277L10.5321 12.2257C10.4305 12.0919 9.74999 11.1954 9.74999 10.2675C9.74999 9.39466 10.1842 8.93716 10.3841 8.72657C10.3978 8.71214 10.4104 8.69887 10.4217 8.68671C10.5976 8.497 10.8055 8.44957 10.9334 8.44957C11.0613 8.44957 11.1894 8.45074 11.3012 8.45629C11.315 8.45697 11.3294 8.45689 11.3442 8.4568C11.4561 8.45615 11.5955 8.45535 11.733 8.78157C11.7859 8.90711 11.8634 9.09324 11.945 9.28955C12.1102 9.68651 12.2926 10.1251 12.3247 10.1886C12.3727 10.2834 12.4047 10.394 12.3407 10.5205C12.3311 10.5395 12.3222 10.5574 12.3137 10.5745C12.2657 10.6714 12.2304 10.7426 12.1488 10.8366C12.1167 10.8736 12.0836 10.9135 12.0505 10.9533C11.9844 11.0327 11.9184 11.1121 11.8609 11.1686C11.7649 11.2631 11.6649 11.3656 11.7768 11.5553C11.8887 11.7451 12.2739 12.3656 12.8444 12.868C13.4577 13.4082 13.9907 13.6364 14.2609 13.7522C14.3136 13.7747 14.3564 13.7931 14.3877 13.8085C14.5796 13.9034 14.6915 13.8876 14.8035 13.7611C14.9154 13.6347 15.2832 13.2078 15.4111 13.0181C15.539 12.8285 15.667 12.8601 15.8429 12.9233C16.0188 12.9866 16.9624 13.4449 17.1543 13.5398C17.1917 13.5583 17.2268 13.575 17.2592 13.5905Z" fill="#FDFDFD"/>
</svg>
