<svg width="23" height="18" viewBox="0 0 23 18" fill="none" xmlns="http://www.w3.org/2000/svg">
<path fill-rule="evenodd" clip-rule="evenodd" d="M2.20379 7.74888C8.10936 5.20867 12.0473 3.534 14.0177 2.72489C19.6435 0.414697 20.8125 0.0133926 21.5744 0.000141289C21.742 -0.00277319 22.1167 0.0382296 22.3594 0.232668C22.5644 0.396848 22.6208 0.618632 22.6478 0.774293C22.6747 0.929954 22.7083 1.28455 22.6816 1.56163C22.3768 4.7241 21.0576 12.3986 20.3865 15.9406C20.1025 17.4394 19.5434 17.9419 19.0021 17.9911C17.8257 18.098 16.9324 17.2235 15.7929 16.4861C14.01 15.3323 13.0027 14.614 11.2721 13.488C9.27199 12.1868 10.5686 11.4716 11.7084 10.3027C12.0067 9.99686 17.19 5.34226 17.2903 4.92001C17.3029 4.86721 17.3145 4.67036 17.1961 4.56642C17.0776 4.46248 16.9028 4.49802 16.7766 4.52629C16.5978 4.56636 13.7495 6.42501 8.23176 10.1022C7.42328 10.6503 6.69099 10.9174 6.03488 10.9034C5.31157 10.888 3.92021 10.4996 2.88588 10.1677C1.61723 9.76056 0.608936 9.5453 0.696736 8.85385C0.742468 8.4937 1.24482 8.12538 2.20379 7.74888Z" fill="white"/>
</svg>
